<?xml version="1.0" standalone="no"?><!DOCTYPE svg PUBLIC "-//W3C//DTD SVG 1.1//EN" "http://www.w3.org/Graphics/SVG/1.1/DTD/svg11.dtd"><svg t="1573389004900" class="icon" viewBox="0 0 1024 1024" version="1.1" xmlns="http://www.w3.org/2000/svg" p-id="1197" xmlns:xlink="http://www.w3.org/1999/xlink" width="200" height="200"><defs><style type="text/css"></style></defs><path d="M515.072 181.76a332.8 332.8 0 0 1 0 665.6 329.728 329.728 0 0 1-141.312-31.488c-20.736-9.728-44.032-14.336-72.96-14.336-22.272 0-45.568 2.56-68.096 5.376 4.608-42.752 9.216-94.72-15.104-142.592A332.8 332.8 0 0 1 515.072 181.76m0-102.4A435.456 435.456 0 0 0 126.464 710.4c25.6 50.432-24.064 156.672 18.176 193.536 8.192 7.168 22.784 9.472 40.192 9.472 35.072 0 82.688-9.472 115.968-9.472 12.032 0 22.272 1.28 29.44 4.608A435.2 435.2 0 1 0 515.072 79.36z" fill="#4C4C4C" p-id="1198"></path><path d="M637.696 693.248a51.456 51.456 0 0 1-51.2 51.2h-153.6a51.456 51.456 0 0 1-51.2-51.2 51.456 51.456 0 0 1 51.2-51.2h153.6a51.456 51.456 0 0 1 51.2 51.2z" fill="#FCC53A" p-id="1199"></path></svg>