<?xml version="1.0" standalone="no"?><!DOCTYPE svg PUBLIC "-//W3C//DTD SVG 1.1//EN" "http://www.w3.org/Graphics/SVG/1.1/DTD/svg11.dtd"><svg t="1568555177612" class="icon" viewBox="0 0 1058 1024" version="1.1" xmlns="http://www.w3.org/2000/svg" p-id="757" xmlns:xlink="http://www.w3.org/1999/xlink" width="132.25" height="128"><defs><style type="text/css"></style></defs><path d="M137.941126 147.616721l-127.535297 320.937666a39.432614 39.432614 0 0 0 2.519306 34.320979l286.178546 495.682565a39.432614 39.432614 0 0 0 53.854728 14.458625l469.248109-270.916664a39.432614 39.432614 0 0 0 14.422113-53.891239L550.450085 192.526088a39.432614 39.432614 0 0 0-28.442599-19.351191l-341.712811-50.021001a39.432614 39.432614 0 0 0-42.353549 24.462825z" fill="#FFC7CE" p-id="758"></path><path d="M273.253412 51.51798l-128.959253 354.966551c-4.016285 10.953504-2.920934 23.075382 2.920934 33.189117l325.976277 564.616617a39.432614 39.432614 0 0 0 53.854728 14.422114l500.867224-289.172505a39.432614 39.432614 0 0 0 14.422113-53.854727L716.359158 111.06853a39.432614 39.432614 0 0 0-27.274225-19.13212L317.213474 26.178874a39.432614 39.432614 0 0 0-43.960062 25.339106z" fill="#FF6073" p-id="759"></path><path d="M456.395998 273.837599m-91.2792 0a91.2792 91.2792 0 1 0 182.558399 0 91.2792 91.2792 0 1 0-182.558399 0Z" fill="#FFFFFF" p-id="760"></path></svg>