<?xml version="1.0" standalone="no"?><!DOCTYPE svg PUBLIC "-//W3C//DTD SVG 1.1//EN" "http://www.w3.org/Graphics/SVG/1.1/DTD/svg11.dtd"><svg t="1568527220665" class="icon" viewBox="0 0 1024 1024" version="1.1" xmlns="http://www.w3.org/2000/svg" p-id="2459" xmlns:xlink="http://www.w3.org/1999/xlink" width="128" height="128"><defs><style type="text/css"></style></defs><path d="M512 1000.727273C260.654545 1000.727273 76.8 833.163636 76.8 602.763636h46.545455c0 204.8 162.909091 351.418182 388.654545 351.418182s388.654545-146.618182 388.654545-351.418182h46.545455C947.2 833.163636 763.345455 1000.727273 512 1000.727273z" fill="#FFA942" p-id="2460"></path><path d="M947.2 602.763636h-46.545455c0-214.109091-79.127273-335.127273-137.30909-393.309091a451.490909 451.490909 0 0 1-44.218182 179.2L691.2 442.181818l-16.290909-58.181818c0-2.327273-65.163636-246.690909-214.109091-309.527273-2.327273 165.236364-151.272727 349.090909-155.927273 356.072728l-32.581818 39.563636-6.981818-51.2A309.527273 309.527273 0 0 0 209.454545 288.581818a283.927273 283.927273 0 0 1-44.218181 172.218182 267.636364 267.636364 0 0 0-41.890909 139.636364h-46.545455a314.181818 314.181818 0 0 1 46.545455-162.909091 237.381818 237.381818 0 0 0 34.90909-174.545455 37.236364 37.236364 0 0 1 18.618182-39.563636 34.909091 34.909091 0 0 1 41.890909 4.654545 307.2 307.2 0 0 1 79.127273 128c44.218182-62.836364 123.345455-190.836364 118.690909-300.218182a37.236364 37.236364 0 0 1 13.963637-32.581818 34.909091 34.909091 0 0 1 32.581818-4.654545c130.327273 51.2 204.8 202.472727 237.381818 290.909091a370.036364 370.036364 0 0 0 16.290909-121.018182 37.236364 37.236364 0 0 1 60.509091-30.254546c62.836364 58.181818 169.890909 190.836364 169.890909 444.509091z" fill="#FFA942" p-id="2461"></path></svg>