<?xml version="1.0" standalone="no"?><!DOCTYPE svg PUBLIC "-//W3C//DTD SVG 1.1//EN" "http://www.w3.org/Graphics/SVG/1.1/DTD/svg11.dtd"><svg t="1568527470300" class="icon" viewBox="0 0 1024 1024" version="1.1" xmlns="http://www.w3.org/2000/svg" p-id="5007" xmlns:xlink="http://www.w3.org/1999/xlink" width="128" height="128"><defs><style type="text/css"></style></defs><path d="M524.42756741 253.09234569c-71.45851259 0-129.97164247 58.51312987-129.97164247 129.97164246s58.51312987 129.97164247 129.97164247 129.97164246 129.97164247-58.51312987 129.97164246-129.97164246S595.88608 253.09234569 524.42756741 253.09234569z" fill="#FA9D3B" p-id="5008"></path><path d="M512 17.48638025c-270.29959111 0-489.33546667 219.03587555-489.33546667 489.33546666s219.03587555 489.33546667 489.33546667 489.33546667 489.33546667-219.03587555 489.33546667-489.33546667-219.03587555-489.33546667-489.33546667-489.33546666zM338.53187161 745.01688889c0 12.94538272-10.35630617 23.30168889-23.30168889 23.30168889s-23.30168889-10.35630617-23.30168889-23.30168889c0-61.62002173 24.3373195-120.13315161 67.83380542-163.62963753 20.71261235-20.71261235 44.53211653-36.76488691 70.42288199-48.15682371-49.71026963-31.06891852-82.85044939-86.47515653-82.85044939-149.13080889 0-97.34927803 79.22574222-176.57502025 176.57502025-176.57502024s176.57502025 79.22574222 176.57502025 176.57502024c0 63.17346765-33.14017975 118.57970569-83.3682647 149.64862421 13.98101333 6.2137837 27.44421136 13.98101333 39.87177877 22.78387356 10.35630617 7.24941431 12.94538272 21.74824297 5.6959684 32.62236445-7.24941431 10.35630617-21.74824297 12.94538272-32.62236445 5.69596841-31.58673383-22.26605827-68.35162075-34.17581037-106.66995357-34.17581037-101.4918005-1.03563061-184.86006518 81.81481876-184.86006519 184.34224987z m489.33546666-46.60337778h-77.15448099v77.15448099c0 12.94538272-10.35630617 23.30168889-23.30168889 23.30168888s-23.30168889-10.35630617-23.30168889-23.30168888V698.41351111h-77.15448098c-12.94538272 0-23.30168889-10.35630617-23.30168889-23.30168889s10.35630617-23.30168889 23.30168889-23.30168889h77.15448098v-77.15448098c0-12.94538272 10.35630617-23.30168889 23.30168889-23.30168888s23.30168889 10.35630617 23.30168889 23.30168888V651.81013333H827.86733827c12.94538272 0 23.30168889 10.35630617 23.3016889 23.30168889 0 12.42756741-10.35630617 23.30168889-23.3016889 23.30168889z" fill="#FA9D3B" p-id="5009"></path></svg>