<?xml version="1.0" standalone="no"?><!DOCTYPE svg PUBLIC "-//W3C//DTD SVG 1.1//EN" "http://www.w3.org/Graphics/SVG/1.1/DTD/svg11.dtd"><svg t="1570685263824" class="icon" viewBox="0 0 1024 1024" version="1.1" xmlns="http://www.w3.org/2000/svg" p-id="2907" xmlns:xlink="http://www.w3.org/1999/xlink" width="128" height="128"><defs><style type="text/css"></style></defs><path d="M157.948 735.493c-45.736 0-82.697-37.227-82.697-82.696V399.655c0-45.47 36.96-82.696 82.697-82.696 22.07 0 42.81 8.509 58.499 24.197 15.688 15.688 24.197 36.429 24.197 58.5v253.14c0 22.07-8.509 42.811-24.197 58.5-15.689 15.422-36.43 24.197-58.5 24.197" fill="#FFFFFF" p-id="2908"></path><path d="M157.948 339.029c-33.504 0-60.36 27.122-60.36 60.36v253.142c0 33.504 27.121 60.36 60.36 60.626 33.504 0 60.36-27.122 60.36-60.626V399.389c0-33.238-27.122-60.36-60.36-60.36m648.542 12.497H217.244V329.19c0-91.205 49.725-176.029 131.091-226.285L316.693 45.47c-3.989-6.648-4.786-15.423-2.66-23.134 2.394-7.711 7.712-14.625 14.891-18.347A28.819 28.819 0 0 1 343.55 0c11.168 0 21.539 6.116 26.857 15.954l33.238 60.36c34.301-12.497 70.465-18.879 107.957-18.879 38.025 0 74.454 6.382 108.755 19.146l32.972-60.627C658.647 6.116 669.017 0 680.185 0c5.052 0 10.104 1.33 14.625 3.723 7.445 3.988 12.763 10.636 14.89 18.613 2.393 7.977 1.33 16.22-2.659 23.4L675.4 103.437c81.367 50.256 131.09 135.08 131.09 226.285v21.804z" fill="#FFFFFF" p-id="2909"></path><path d="M645.351 111.68l42.28-77.112c2.126-3.989 0.797-9.307-3.192-11.434-4.254-2.128-9.306-0.798-11.434 3.456l-42.544 77.91c-35.898-15.954-76.05-24.994-118.328-24.729-42.279 0-82.43 8.775-118.062 24.73l-42.545-77.645c-2.127-3.988-7.445-5.584-11.434-3.456s-5.584 7.445-3.456 11.434l42.279 77.112c-82.963 42.81-139.069 124.178-139.069 217.776H784.42c-0.266-93.864-56.106-175.231-139.069-218.042M387.955 230.806c-12.497 0-22.867-10.105-22.867-22.868 0-12.498 10.104-22.868 22.867-22.868 12.498 0 22.868 10.37 22.868 22.868 0 12.497-10.104 22.868-22.868 22.868m248.09 0c-12.498 0-22.868-10.105-22.868-22.868 0-12.498 10.104-22.868 22.868-22.868 12.497 0 22.867 10.37 22.867 22.868 0 12.497-10.37 22.868-22.867 22.868" fill="#FFFFFF" p-id="2910"></path><path d="M410.823 1024c-45.47 0-82.696-36.96-82.696-82.696v-111.68h-21.804c-23.134 0-44.938-9.041-61.425-25.261-16.486-16.487-25.526-38.025-25.26-61.425V328.393h585.256v414.545c0 47.863-38.822 86.685-86.685 86.685h-21.804v111.68c0 45.47-36.96 82.697-82.696 82.697-22.07 0-42.811-8.509-58.5-24.197-15.688-15.689-24.197-36.43-24.197-58.5v-111.68h-37.226v111.68c-0.266 45.47-37.493 82.697-82.963 82.697" fill="#FFFFFF" p-id="2911"></path><path d="M241.974 742.673c0 35.63 28.717 64.614 64.614 64.614h43.875v134.017c0 33.238 27.122 60.36 60.36 60.36 33.504 0 60.36-27.122 60.36-60.626V807.022h81.633v134.016c0 33.238 27.123 60.36 60.36 60.36 33.505 0 60.361-27.122 60.361-60.36V807.022h44.14c35.632 0 64.615-28.984 64.615-64.615V349.93H241.708l0.266 392.742z m624.078-7.446c-45.47 0-82.696-36.96-82.696-82.696V399.389c0-45.735 36.96-82.696 82.696-82.696s82.697 36.96 82.697 82.696v253.142c0 45.735-36.96 82.696-82.697 82.696" fill="#FFFFFF" p-id="2912"></path><path d="M866.052 339.029c-33.504 0-60.36 27.122-60.36 60.36v253.142c0 33.504 27.122 60.36 60.36 60.36 33.504 0 60.36-27.122 60.36-60.36V399.389c0-33.238-26.856-60.36-60.36-60.36" fill="#FFFFFF" p-id="2913"></path><path d="M157.948 339.029c-33.504 0-60.36 27.122-60.36 60.36v253.142c0 33.504 27.121 60.36 60.36 60.36 33.504 0 60.36-27.122 60.36-60.36V399.389c0-33.238-27.122-60.36-60.36-60.36M645.35 111.68l42.28-77.112c2.126-3.989 0.797-9.041-3.192-11.434-3.988-2.128-9.306-0.798-11.434 3.456l-42.544 77.91c-35.898-15.954-76.05-24.994-118.594-24.994-42.279 0-82.43 8.774-118.062 24.729L351.26 26.59c-2.127-3.988-7.445-5.584-11.433-3.456s-5.584 7.445-3.457 11.434l42.279 77.112C295.686 154.49 239.58 235.858 239.58 329.456h544.574c0-93.598-55.84-174.965-138.803-217.776M387.955 230.806c-12.497 0-22.867-10.105-22.867-22.868 0-12.498 10.104-22.868 22.867-22.868 12.498 0 22.868 10.37 22.868 22.868 0 12.497-10.104 22.868-22.868 22.868m248.09 0c-12.498 0-22.868-10.105-22.868-22.868 0-12.498 10.104-22.868 22.868-22.868 12.497 0 22.867 10.37 22.867 22.868 0 12.497-10.37 22.868-22.867 22.868M241.708 350.463v392.475c0 35.632 28.717 64.615 64.615 64.615h43.874V941.57c0 33.239 27.122 60.36 60.36 60.36 33.504 0 60.36-27.121 60.36-60.625V807.287h81.634v134.017c0 33.238 27.122 60.36 60.36 60.36 33.504 0 60.36-27.122 60.36-60.36V807.287h44.14c35.632 0 64.615-28.717 64.615-64.614V350.197l-540.318 0.266z m684.97 48.926c0-33.504-27.122-60.36-60.36-60.36-33.504 0-60.36 27.122-60.36 60.36v253.142c0 33.504 27.122 60.36 60.36 60.36 33.504 0 60.36-27.122 60.36-60.36V399.389z" fill="#A4C439" p-id="2914"></path></svg>