<?xml version="1.0" standalone="no"?><!DOCTYPE svg PUBLIC "-//W3C//DTD SVG 1.1//EN" "http://www.w3.org/Graphics/SVG/1.1/DTD/svg11.dtd"><svg t="1570682375742" class="icon" viewBox="0 0 1024 1024" version="1.1" xmlns="http://www.w3.org/2000/svg" p-id="5620" xmlns:xlink="http://www.w3.org/1999/xlink" width="128" height="128"><defs><style type="text/css"></style></defs><path d="M153.6 256c6.4-6.4 19.2-6.4 32 0 0 0 192 172.8 422.4 217.6 160 32 320 44.8 409.6 51.2 0-25.6-25.6-32-102.4-70.4-44.8-19.2-115.2-64-192-108.8-44.8 38.4-108.8 64-121.6 64-12.8 6.4-19.2 0-25.6-12.8-6.4-12.8 0-19.2 12.8-25.6 0 0 32-12.8 64-32 12.8-6.4 25.6-12.8 32-19.2-19.2-12.8-38.4-19.2-57.6-32-25.6 12.8-51.2 25.6-76.8 32-44.8 19.2-83.2 25.6-89.6 25.6-12.8 0-19.2-6.4-25.6-12.8 0-12.8 6.4-19.2 12.8-25.6 0 0 70.4-19.2 128-44.8-32-12.8-57.6-25.6-83.2-38.4-115.2-38.4-268.8-51.2-358.4-12.8l-96-108.8c-6.4-6.4-19.2-6.4-25.6 0-6.4 6.4-6.4 19.2 0 25.6l96 108.8s-64 249.6 281.6 358.4c307.2 96 550.4 19.2 608-38.4-89.6-6.4-243.2-19.2-403.2-51.2-243.2-51.2-435.2-224-441.6-230.4-6.4 0-6.4-12.8 0-19.2z" fill="#C10652" p-id="5621"></path><path d="M224 876.8h-44.8l-19.2-44.8h-76.8l-12.8 44.8h-38.4l76.8-192h38.4l76.8 192z m-70.4-76.8l-25.6-70.4-25.6 70.4h51.2z m89.6-57.6h32v19.2l19.2-19.2c6.4-6.4 19.2-6.4 25.6-6.4 19.2 0 32 6.4 38.4 19.2s19.2 32 19.2 51.2c0 25.6-6.4 38.4-19.2 51.2-12.8 12.8-25.6 19.2-38.4 19.2-6.4 0-12.8 0-19.2-6.4-6.4 0-12.8-6.4-19.2-12.8v70.4h-38.4v-185.6z m38.4 64c0 12.8 0 25.6 6.4 32 6.4 6.4 12.8 12.8 25.6 12.8 6.4 0 12.8-6.4 19.2-12.8 6.4-6.4 6.4-19.2 6.4-32s0-25.6-6.4-32c-6.4-6.4-12.8-12.8-19.2-12.8-6.4 0-19.2 6.4-25.6 12.8-6.4 6.4-6.4 19.2-6.4 32z m153.6-25.6l-32-6.4c6.4-12.8 12.8-25.6 19.2-32 6.4-6.4 25.6-12.8 38.4-12.8 19.2 0 25.6 0 38.4 6.4 6.4 6.4 12.8 6.4 19.2 12.8 6.4 6.4 6.4 19.2 6.4 32v70.4c0 6.4 6.4 12.8 6.4 19.2h-38.4s0-6.4-6.4-12.8v-6.4c-6.4 6.4-12.8 12.8-19.2 12.8-6.4 0-12.8 6.4-25.6 6.4s-25.6-6.4-32-12.8c-6.4-6.4-12.8-19.2-12.8-32 0-6.4 0-12.8 6.4-19.2 6.4-6.4 6.4-12.8 12.8-12.8 6.4-6.4 19.2-6.4 32-6.4 19.2-6.4 32-6.4 38.4-6.4v-6.4c0-6.4 0-12.8-6.4-12.8s-12.8-6.4-19.2-6.4c-6.4 0-12.8 0-12.8 6.4s-6.4 12.8-12.8 19.2z m51.2 32c-6.4 0-12.8 6.4-25.6 6.4s-19.2 6.4-19.2 6.4c-6.4 6.4-6.4 6.4-6.4 12.8s0 12.8 6.4 12.8c6.4 6.4 6.4 6.4 12.8 6.4s12.8 0 19.2-6.4c6.4-6.4 6.4-6.4 6.4-12.8v-19.2c6.4 0 6.4-6.4 6.4-6.4z m192-32l-38.4 6.4c0-6.4-6.4-12.8-6.4-19.2-6.4-6.4-12.8-6.4-19.2-6.4-6.4 0-19.2 0-19.2 6.4-6.4 6.4-6.4 19.2-6.4 32 0 19.2 0 25.6 6.4 32 6.4 6.4 12.8 12.8 19.2 12.8 6.4 0 12.8 0 19.2-6.4 6.4-6.4 6.4-12.8 6.4-19.2l38.4 6.4c-6.4 19.2-12.8 32-19.2 38.4-12.8 6.4-25.6 12.8-44.8 12.8-19.2 0-38.4-6.4-51.2-19.2s-19.2-32-19.2-51.2c0-25.6 6.4-38.4 19.2-51.2 12.8-12.8 25.6-19.2 51.2-19.2 19.2 0 32 6.4 38.4 12.8 19.2 6.4 25.6 19.2 25.6 32z m64-96v70.4c12.8-12.8 25.6-19.2 44.8-19.2 6.4 0 19.2 0 25.6 6.4 6.4 0 12.8 6.4 12.8 12.8 6.4 6.4 6.4 12.8 6.4 19.2V883.2h-38.4v-76.8-25.6c0-6.4-6.4-6.4-6.4-6.4-6.4 0-6.4-6.4-12.8-6.4s-12.8 0-19.2 6.4c-6.4 0-6.4 6.4-12.8 12.8 0 6.4-6.4 12.8-6.4 25.6v70.4h-38.4v-192h44.8z m211.2 147.2l38.4 6.4c-6.4 12.8-12.8 25.6-19.2 32-12.8 6.4-25.6 12.8-38.4 12.8-25.6 0-44.8-6.4-51.2-25.6-6.4-12.8-12.8-25.6-12.8-51.2s6.4-38.4 19.2-51.2c12.8-12.8 25.6-19.2 44.8-19.2 19.2 0 38.4 6.4 51.2 19.2 12.8 12.8 19.2 32 19.2 64h-89.6c0 12.8 6.4 19.2 6.4 25.6 6.4 6.4 12.8 6.4 19.2 6.4 6.4 0 12.8 0 12.8-6.4-6.4 0 0-6.4 0-12.8z m0-32c0-12.8 0-19.2-6.4-25.6-6.4-6.4-12.8-6.4-19.2-6.4-6.4 0-12.8 0-19.2 6.4-6.4 6.4-6.4 12.8-6.4 25.6h51.2z" fill="#606060" p-id="5622"></path></svg>