<?xml version="1.0" standalone="no"?><!DOCTYPE svg PUBLIC "-//W3C//DTD SVG 1.1//EN" "http://www.w3.org/Graphics/SVG/1.1/DTD/svg11.dtd"><svg t="1570711849705" class="icon" viewBox="0 0 1024 1024" version="1.1" xmlns="http://www.w3.org/2000/svg" p-id="2920" xmlns:xlink="http://www.w3.org/1999/xlink" width="128" height="128"><defs><style type="text/css"></style></defs><path d="M224 505.6h192c12.8 0 25.6-12.8 25.6-25.6s-12.8-25.6-25.6-25.6h-192c-12.8 0-25.6 12.8-25.6 25.6s12.8 25.6 25.6 25.6zM608 582.4h-384c-12.8 0-25.6 12.8-25.6 25.6s12.8 25.6 25.6 25.6h384c12.8 0 25.6-12.8 25.6-25.6s-12.8-25.6-25.6-25.6z" fill="#333333" p-id="2921"></path><path d="M819.2 96H268.8c-57.6 0-108.8 57.6-108.8 121.6v6.4c-57.6 6.4-96 51.2-96 115.2v396.8c0 64 44.8 108.8 102.4 115.2v76.8c0 12.8 6.4 19.2 12.8 25.6 6.4 6.4 12.8 6.4 19.2 6.4h6.4l409.6-108.8h76.8c44.8 0 83.2-25.6 96-64 6.4 6.4 12.8 19.2 25.6 19.2 57.6 0 108.8-57.6 108.8-121.6V217.6c6.4-64-44.8-121.6-102.4-121.6z m-83.2 640c0 25.6-19.2 44.8-38.4 44.8H614.4h-6.4l-371.2 102.4v-70.4c0-19.2-12.8-32-32-32h-32c-19.2 0-38.4-19.2-38.4-44.8V339.2c0-25.6 19.2-44.8 38.4-44.8h524.8c19.2 0 38.4 19.2 38.4 44.8v396.8z m128-57.6c0 32-19.2 57.6-44.8 57.6-6.4 0-12.8 0-19.2 6.4V339.2c0-64-51.2-115.2-108.8-115.2H224c0-32 19.2-57.6 44.8-57.6h550.4c25.6 0 44.8 25.6 44.8 57.6v454.4z" fill="#333333" p-id="2922"></path></svg>