<?xml version="1.0" standalone="no"?><!DOCTYPE svg PUBLIC "-//W3C//DTD SVG 1.1//EN" "http://www.w3.org/Graphics/SVG/1.1/DTD/svg11.dtd"><svg t="1570611577538" class="icon" viewBox="0 0 1024 1024" version="1.1" xmlns="http://www.w3.org/2000/svg" p-id="7070" xmlns:xlink="http://www.w3.org/1999/xlink" width="128" height="128"><defs><style type="text/css"></style></defs><path d="M909.755733 182.401707l-124.839253-129.71008C757.712213 24.497493 704.075093 1.344853 665.58976 1.344853H246.07744C207.588693 1.344853 176.186027 34.030933 176.186027 73.9328v351.3856H232.106667V73.9328c0-7.901867 6.495573-14.503253 14.0288-14.503253h419.505493c4.12672 0 8.925867 0.549547 13.963947 1.55648v230.765226h222.272853c0.99328 5.249707 1.518933 33.91488 1.518933 38.33856V950.0672c0 7.898453-6.498987 14.493013-14.032213 14.493013H246.07744c-7.611733 0-14.032213-6.724267-14.032213-14.486186v-104.915627H176.110933v104.915627c0 39.963307 31.409493 72.577707 69.894827 72.577706h643.293867c38.498987 0 69.89824-32.6144 69.89824-72.577706V330.16832c0.064853-39.980373-22.217387-119.565653-49.442134-147.766613z m-173.093546 57.442986V94.726827a66.071893 66.071893 0 0 1 9.806506 8.26368l125.44 126.795093a77.1072 77.1072 0 0 1 8.236374 10.059093h-143.48288z" fill="#33a6d6" p-id="7071"></path><path d="M824.32 783.36c0 22.62016-18.33984 40.96-40.96 40.96h-696.32c-22.62016 0-40.96-18.33984-40.96-40.96v-300.373333c0-22.62016 18.33984-40.96 40.96-40.96h696.32c22.62016 0 40.96 18.33984 40.96 40.96v300.373333zM267.359573 528.04608c-57.227947 3.945813-87.49056 35.86048-90.774186 95.706453 1.972907 60.525227 33.870507 91.76064 95.706453 93.733547 51.305813-1.972907 80.244053-26.299733 86.828373-73.014613H301.892267c-2.635093 20.39808-12.827307 30.58688-30.58688 30.58688-23.681707 0-35.519147-16.431787-35.519147-49.332907 0.64512-34.85696 11.840853-52.616533 33.54624-53.27872 19.070293 0.662187 29.924693 10.530133 32.559787 29.600427h56.241493c-5.91872-48.67072-36.184747-73.335467-90.774187-74.001067z m173.653334 130.239147h29.600426c49.98144-0.64512 75.308373-22.029653 75.973974-64.13312-1.327787-40.113493-27.303253-60.511573-77.94688-61.17376h-86.828374v181.548373h59.200854v-56.241493z m0-82.879147h16.77312c21.0432 0 31.573333 6.260053 31.573333 18.746027 0 14.475947-7.89504 21.705387-23.681707 21.705386h-24.66816v-40.451413z m181.548373 82.879147h29.600427c49.98144-0.64512 75.308373-22.029653 75.973973-64.13312-1.327787-40.113493-27.303253-60.511573-77.94688-61.17376h-86.828373v181.548373h59.200853v-56.241493z m0-82.879147h16.77312c21.0432 0 31.573333 6.260053 31.573333 18.746027 0 14.475947-7.89504 21.705387-23.681706 21.705386h-24.66816v-40.451413z" fill="#33a6d6" p-id="7072"></path></svg>