<?xml version="1.0" standalone="no"?><!DOCTYPE svg PUBLIC "-//W3C//DTD SVG 1.1//EN" "http://www.w3.org/Graphics/SVG/1.1/DTD/svg11.dtd"><svg t="1570711903179" class="icon" viewBox="0 0 1024 1024" version="1.1" xmlns="http://www.w3.org/2000/svg" p-id="3950" xmlns:xlink="http://www.w3.org/1999/xlink" width="128" height="128"><defs><style type="text/css"></style></defs><path d="M939.8 599.8S929.6 749 865.2 814.5c-44.4 45.1-109.6 70.1-153.7 66.4 0 0 125.3 91.8 228.3-47.7 51.9-78 0-233.4 0-233.4z" fill="#515151" p-id="3951"></path><path d="M959.1 736.4c-2.1 0-4.1-0.8-5.7-2.4l-26.7-26.7c-3.1-3.1-3.1-8.2 0-11.4 3.1-3.1 8.2-3.1 11.4 0l26.7 26.7c3.1 3.1 3.1 8.2 0 11.4-1.6 1.6-3.6 2.4-5.7 2.4zM956.2 783.6c-2.1 0-4.1-0.8-5.7-2.4l-32.8-32.8c-3.1-3.1-3.1-8.2 0-11.4 3.1-3.1 8.2-3.1 11.4 0l32.8 32.8c3.1 3.1 3.1 8.2 0 11.4-1.5 1.7-3.6 2.4-5.7 2.4zM942.7 823c-2.1 0-4.1-0.8-5.7-2.4l-32.8-32.8c-3.1-3.1-3.1-8.2 0-11.4 3.1-3.1 8.2-3.1 11.4 0l32.8 32.8c3.1 3.1 3.1 8.2 0 11.4-1.6 1.6-3.6 2.4-5.7 2.4zM922.2 858.9c-2.1 0-4.1-0.8-5.7-2.4L881 821.1c-3.1-3.1-3.1-8.2 0-11.4 3.1-3.1 8.2-3.1 11.4 0l35.5 35.5c3.1 3.1 3.1 8.2 0 11.4-1.6 1.6-3.6 2.3-5.7 2.3zM888.5 885c-2.1 0-4.1-0.8-5.7-2.4L850 849.8c-3.1-3.1-3.1-8.2 0-11.4 3.1-3.1 8.2-3.1 11.4 0l32.8 32.8c3.1 3.1 3.1 8.2 0 11.4-1.6 1.6-3.6 2.4-5.7 2.4zM852.7 905.3c-2.1 0-4.1-0.8-5.7-2.4l-32.8-32.8c-3.1-3.1-3.1-8.2 0-11.4 3.1-3.1 8.2-3.1 11.4 0l32.8 32.8c3.1 3.1 3.1 8.2 0 11.4-1.6 1.6-3.7 2.4-5.7 2.4zM806.6 920.4c-2.1 0-4.1-0.8-5.7-2.4l-27.6-27.6c-3.1-3.1-3.1-8.2 0-11.4 3.1-3.1 8.2-3.1 11.4 0l27.6 27.6c3.1 3.1 3.1 8.2 0 11.4-1.6 1.6-3.7 2.4-5.7 2.4z" fill="#515151" p-id="3952"></path><path d="M274.7 333.8c27.7 0 55.1 11.7 78.7 28.7 29.5 21.2 49.6 49.6 74.2 75.7 22.1 23.4 55.1 34.6 86.3 34.6 24.5 0 56.3-8.8 75.3-25.7 25.1-22.4 43.1-52.4 69.4-74.2 29.5-24.5 59.2-35.8 87.2-35.8 47.1 0 89.4 32.1 118.3 87.5 41.6 79.9 61.8 170 78.9 258.4 2.2 11.2 3.8 22.8 4.7 34.6 2.4 30.5-0.3 63.4-11.1 92.1-22.1 58.7-83 90.1-142.2 90.1-12.9 0-25.8-1.5-38.1-4.5-49.8-12.2-70.3-59.9-105-93-36-34.3-85-55.2-134.1-55.2-1.5 0-3 0-4.5 0.1-50.3 1.3-108.2 12.3-144.8 51.4-17.7 19-27.3 44.4-45.2 63.3-25.7 27.2-57.9 39.1-90.4 39.1-73.4 0-148.6-60.6-155.4-140.9C69.7 676 95.3 590.3 119.5 511c20.1-66.1 50.4-137.4 114.8-168.1 13.3-6.3 26.9-9.1 40.4-9.1m0-24.1c-17.7 0-34.8 3.9-50.8 11.5C149.5 356.7 116.7 437.5 96.4 504c-24 78.8-51.2 168.1-43.6 257.9 3.8 44.2 25.4 85.6 60.9 116.7 33.7 29.4 76.9 46.3 118.5 46.3 41.7 0 79-16.1 107.9-46.6 10.7-11.3 18.4-23.7 25.8-35.8 6.3-10.3 12.3-20 19.5-27.7 25.7-27.5 68.7-42.2 127.8-43.8 1.3 0 2.6-0.1 3.9-0.1 42.3 0 85.1 17.7 117.4 48.6 9.6 9.2 18.2 19.8 27.3 31.1 21.7 26.9 46.3 57.4 88.5 67.8 14.1 3.5 28.9 5.2 43.9 5.2 74.8 0 141-42.5 164.7-105.7 14.1-37.5 14.6-76.4 12.5-102.4-1-12.3-2.7-24.8-5.1-37.2-7.8-40.6-17.6-88.3-30.7-134.4-14.2-49.9-30.7-92.6-50.4-130.5C852 349.6 801.1 313 745.6 313c-35 0-69.5 13.9-102.6 41.4-15.5 12.9-28 27.7-40 42.1-10 11.9-19.4 23.2-30 32.6-12.7 11.3-37.7 19.6-59.3 19.6-27 0-52.7-10.1-68.7-27-7-7.4-13.8-15.2-20.4-22.8-16.8-19.3-34.3-39.4-57.3-55.9-30.1-21.8-62.2-33.3-92.6-33.3z" fill="#515151" p-id="3953"></path><path d="M511.1 457.6c-6.4 0-11.8-5.1-12-11.6 0-0.9-0.3-3.4-0.6-5.7-12.3-99 29.9-164.5 125.4-194.7 123.7-39.1 118.8-129.7 118.5-133.5-0.5-6.6 4.5-12.4 11.1-12.9s12.4 4.4 12.9 11c0.1 1.1 7.4 113.3-135.2 158.3C506.3 308 518.4 405.4 522.3 437.4c0.4 3.4 0.7 5.8 0.8 7.8 0.3 6.6-4.9 12.2-11.6 12.5-0.1-0.1-0.3-0.1-0.4-0.1zM312.3 512.2c8.8 0 16.6 0.9 18.4 2.3 2.5 2 3.7 27.2 4.1 58.7 29.3 0.2 53.1 0.8 53.1 0.8 9.4 0 7.5 43.3 5.7 49-0.8 2.3-27.3 3.7-58.9 4.1-0.6 27.3-1.9 49.8-3.9 53.2-2.8 4.7-12.2 7.1-21.9 7.1s-19.6-2.4-23.3-7.1c-2.8-3.5-4-26.1-4.5-53.4-27.4-0.6-49.9-1.9-53.3-3.9-9.4-5.7-9.7-38.1 0-45.2 5.7-4.2 26-4 53.2-4.5 0.2-29.3 0.8-53.2 0.8-53.2 0-5.7 16.6-7.9 30.5-7.9m0-24.1c-5.5 0-16.1 0.3-25.6 2.4-25.7 5.5-28.9 22-29 29.2 0 1.5-0.3 13.3-0.6 29.9-21.9 0.5-34.3 1.9-43.7 8.8-16.6 12.3-17.3 36.5-16.8 46.3 0.9 18.4 7.6 32.2 18.8 38.9 4.5 2.7 8.7 5.2 42.2 6.7 1.3 31.6 4.1 38.7 9.1 45 11.2 14 31.2 16.1 42.1 16.1 11.7 0 32.8-2.4 42.6-18.8 2.7-4.5 5.2-8.7 6.6-42 7.3-0.2 13.7-0.5 19.2-0.9 16.5-1.1 33.5-2.1 39.2-19.2 2.3-7 7.2-50.6-6-68.9-5.3-7.4-13.4-11.7-22.1-11.8-1.5 0-13.4-0.3-29.9-0.6-1-36-3.3-46.2-12.8-53.7-4.8-3.8-12.2-7.4-33.3-7.4zM756.9 570c-23.1 0-43.4-14.2-52.7-37.3-9.8-24.3-4.1-49.6 14.7-64.4 12.4-9.9 29.2-14 46-11.2 17.4 2.8 32.7 12.7 42.1 27.1 10.6 16.1 11.9 35.2 3.7 52.3-8.8 18.5-27.3 31.2-48.1 33.3-2 0.1-3.9 0.2-5.7 0.2z m-23.1-82.9c-12.3 9.8-11.6 25.8-7.3 36.5 4.6 11.3 16.1 23.8 33.6 22.1 12.5-1.2 23.5-8.8 28.8-19.7 2.6-5.5 5.8-16.5-2.1-28.7-5.7-8.8-15.1-14.8-25.8-16.5-10.2-1.7-20.1 0.6-27.2 6.3zM657.8 710.3c-23.1 0-43.4-14.2-52.7-37.3-9.8-24.3-4.1-49.6 14.7-64.4 12.4-9.9 29.2-13.9 46-11.2 17.4 2.8 32.7 12.7 42.1 27.1 10.6 16.1 11.9 35.2 3.7 52.3-8.8 18.5-27.3 31.2-48.1 33.3-2 0.1-3.8 0.2-5.7 0.2z m-23.1-82.8c-12.3 9.8-11.6 25.8-7.3 36.5 4.6 11.3 16.1 23.8 33.6 22.1 12.5-1.2 23.5-8.8 28.8-19.7 2.6-5.5 5.8-16.5-2.1-28.7-5.7-8.8-15.1-14.8-25.8-16.5-10.2-1.7-20.1 0.6-27.2 6.3z" fill="#515151" p-id="3954"></path></svg>