<?xml version="1.0" standalone="no"?><!DOCTYPE svg PUBLIC "-//W3C//DTD SVG 1.1//EN" "http://www.w3.org/Graphics/SVG/1.1/DTD/svg11.dtd"><svg t="1570711824521" class="icon" viewBox="0 0 1024 1024" version="1.1" xmlns="http://www.w3.org/2000/svg" p-id="2722" xmlns:xlink="http://www.w3.org/1999/xlink" width="128" height="128"><defs><style type="text/css"></style></defs><path d="M512 64C264.96 64 64 264.96 64 512s200.96 448 448 448 448-200.96 448-448S759.04 64 512 64z" fill="#FFD800" p-id="2723"></path><path d="M512 64c247.04 0 448 200.96 448 448S759.04 960 512 960 64 759.04 64 512 264.96 64 512 64m0-64C229.2352 0 0 229.2352 0 512s229.2352 512 512 512 512-229.2352 512-512S794.7648 0 512 0z" fill="#FFFFFF" p-id="2724"></path><path d="M736.6784 344.2304c-56.9216-72.5376-149.8624-115.456-251.9424-101.6576-121.8048 16.4736-218.88 116.288-232.3584 238.4512C234.24 645.12 362.24 784 522.6624 784a271.36 271.36 0 0 0 213.9648-104.1664 22.464 22.464 0 0 0-5.5168-32.6784L521.8816 512l209.2288-135.1552a22.4384 22.4384 0 0 0 5.568-32.6144z m-283.7504 21.312a41.8432 41.8432 0 1 1 41.8432 41.8432 41.8432 41.8432 0 0 1-41.8432-41.8432z" fill="#FFFFFF" p-id="2725"></path></svg>