<?xml version="1.0" standalone="no"?><!DOCTYPE svg PUBLIC "-//W3C//DTD SVG 1.1//EN" "http://www.w3.org/Graphics/SVG/1.1/DTD/svg11.dtd"><svg t="1570683274277" class="icon" viewBox="0 0 1024 1024" version="1.1" xmlns="http://www.w3.org/2000/svg" p-id="12850" xmlns:xlink="http://www.w3.org/1999/xlink" width="128" height="128"><defs><style type="text/css"></style></defs><path d="M834.4 583.5c-3.9 0-4.6-1.2-3.9-5.2 3.1-18.7 6.5-37.4 8.5-56.2 3.5-31.8 3.7-63.6-1.9-95.2-4.9-28-13.7-54.4-28.9-78-7.5-11.6-16.1-22.4-23.9-33.8-1.4-2.1-2.4-5.5-2-8 3.3-20.8 5.1-41.7 4.7-62.8-0.4-19.6-2.8-38.9-10.1-57.1-5-12.6-7.6-14.8-20.6-12.8-12.2 1.9-24.4 4.8-36 9.1-29.5 10.8-56.6 27-83.1 44.4-1.7 1.1-4.3 1.5-6.4 1.1-4.3-0.7-8.5-2.2-12.8-3.1-30.8-6.3-61.9-8.6-93.2-8.9-29.1-0.3-58.1 0.9-86.9 5.7-14.2 2.4-28.3 6.2-42.2 10.2-4.6 1.3-7.7 1.2-11.6-1.7-20.8-15.5-42.6-29.3-66.1-39.7-20.2-8.9-40.8-15.8-63.1-15.6-3.8 0-6.1 1.2-7.7 5.2-9.1 22.3-13.5 45.6-14.3 69.8-0.7 22.7 1.3 45.1 7 67.1 1 3.9 0.2 6.6-2.2 9.6-5.2 6.7-10 13.7-14.9 20.6-17.4 24.6-28.4 52-32 82.7-2.6 21.9-2.4 43.8-1.4 65.8 1 22.9 4.1 45.5 9.4 67.8 1.4 6.1 3.1 12.1 5 19.5-8.5 0-16-0.3-23.6 0-28 1.1-56 2-84 3.8-7.8 0.5-5.5 1.1-13.3 1.7v8.1c2.9-0.3 5.8-0.5 8.7-0.8 26.9-2.2 43.9-3.3 70.9-4.6 13.3-0.6 26.5-0.8 39.8-1 1.5 0 3.9 0.3 4.3 1.2 2.9 6.2 5.3 12.5 8.3 19.8h-5.2c-7.9 0.3-15.8 0.2-23.6 0.9-27.6 2.4-55.3 4.5-82.8 7.9-10.1 1.3-10.2 2.8-20.3 4.6v8c12.3-2.2 14.7-4 27.1-5.7 34.8-4.6 69.7-7.1 104.8-8 3.3-0.1 4.9 1.1 6.5 4 10.1 18.5 22.8 34.7 38 48.8 23.7 21.9 51.3 36.5 80.9 46.7 27.6 9.5 55.9 15.1 84.7 18.3 1.4 0.2 2.8 0.5 4.1 0.8 0.4 0.6 0.9 1.3 1.3 1.9-1.5 0.9-3.2 1.6-4.5 2.8-14.9 14.3-26.7 31-30.5 52.3-1.4 8.1-5.7 11-11.7 13.4-0.3 0.1-0.6 0.2-0.8 0.3-20.2 8.1-41 8.9-62.1 6.4-19.9-2.3-36-11.7-48.4-28.3-8.7-11.6-17.3-23.4-26.2-34.8-11.7-15-24.4-28.9-43-34.2-10.9-3.1-22-3.5-32.7 0.9-5.2 2.1-6.3 6.6-2.9 11.2 2.6 3.4 5.8 6.6 9.3 9 22 15.1 38.9 34.7 49.9 60.1 5.2 11.9 10.3 24 16.8 35.1 15.6 26.5 38.6 42.2 67.4 47.9 24.4 4.9 48.9 2.6 73.3-0.3 4-0.5 5.2 0.4 5.2 4.6v9.3h50.8c0.1-12.2 0.1-24.5 0.3-36.7 0.1-7.2 1.4-14.5 3.1-21.4 2.1-8.2 6.1-15.5 13.1-21.6 0.3 2 0.6 3.1 0.6 4.3 0.1 7.1 0.4 14.2 0.3 21.3-0.2 18.1-0.3 36.1-0.5 54.2h56.5c-0.1-24.7-0.6-49.5-0.9-74.2-0.1-10.5-0.3-10.4 9.3-11 3.6-0.2 4.9 0.9 4.9 4.9 0 16.4 0.4 32.8 0.4 49.2 0 10.4 0.1 20.8 0.1 31.2H582v-72.6c0-1.6 0.2-3.2 0.4-5 5.8 0.4 8.4 4.3 10.4 8.7 5 11.2 5.9 23.3 6.1 35.3 0.2 11.2 0.3 22.5 0.4 33.7h52.3c0-11.3-0.1-22.6 0-33.9 0.1-21.1-1-42.1-5.1-62.7-4-20.3-12.2-38.3-27.7-51.8-3.4-3-7-5.8-11.4-9.4 5.3-0.8 9.7-1.5 14.1-2.1 33.9-4.2 67.2-10.7 99.2-23.6 39.7-15.9 71.9-41.6 91.6-82.4 3.5-7.3 6.8-10.6 15.2-9.8 24.5 2.3 49.2 2.9 73.8 5.1 20.5 1.8 10.9 1.5 31.3 4.5 2 0.3 3.9 0.6 5.9 0.9v-8.1c-4-0.6-8-1.1-12.1-1.6-29.7-3.6-29.5-3.6-59.3-6.4-13.6-1.3-27.4-1.4-41.1-2-5.1-0.2-5.5-0.8-3.6-6.1 1.1-3.2 2.5-6.3 3.2-9.6 0.8-4.4 3.2-5.8 7.1-5.7 22 0.4 44.1 0.2 66.1 1.2 23.2 1 16.5 1.3 39.7 3.3v-7.7c-20-1.8-10-2.2-30-3.3-24.7-1.8-49.4-1.4-74.1-1.7z" fill="" p-id="12851"></path><path d="M721.1 452.6c-26-19.2-55.5-23.7-86.4-21.6-29 1.9-58 4.3-87 5.3-21.1 0.7-42.2-0.1-63.3-0.9-25.5-1-51-2.6-76.5-4.4-18.3-1.3-36.3-0.4-53.9 5-40.6 12.6-65.4 41.6-76.6 83.8-7.7 28.9-4.9 57.6 4.5 85.5 12.9 38.6 39.7 63 74.7 78.3 27 11.8 55.4 17.3 84.4 18.7 29 1.5 58.1 1.8 86.3 2.7 29.1-0.8 57.3-1.2 85.4-2.5 27.3-1.3 53.9-6.3 79.1-18 39.6-18.3 63.1-50 70.8-94.4 4.5-26.2 4.1-52.5-3.1-78.3-6.7-24.1-18.6-44.5-38.4-59.2z" fill="#FDBF9D" p-id="12852"></path><path d="M538.8 647.3c-1.2 1.9-1.4 4.5-2.7 6.3-7 10.4-24.2 12.7-35.8 5-4.6-3.1-8.4-6.6-10.4-11.9-0.5-1.2-2.9-1.9-4.4-2.8-0.8 1.4-2.1 2.7-2.4 4.2-0.2 1.3 0.5 2.8 1.2 4 6.6 11.6 17.5 16.9 33.4 18.5 3.9-1.2 10.1-2.3 15.4-5 7.2-3.7 12.6-9.4 12.7-17.8 0-1.3-1.9-2.7-3-4-1.3 1.2-3.1 2.1-4 3.5zM516.7 602.1c-6.2-0.1-11.8 5.6-11.8 11.9 0 6.7 5.2 12 12.1 12 6.6 0 11.8-5.1 11.8-11.8-0.1-6.7-5.3-12-12.1-12.1z" fill="#B1403B" p-id="12853"></path><path d="M620.8 505.2c-10.5 16.7-13.5 35.2-11.4 54.8 1.8 16.8 6.9 32.1 19.2 43.8 11.9 11.4 29.5 11.5 41.1-0.1 14.5-14.5 19.9-32.8 19.6-55.6 0.5-13.7-3-28.5-11.1-42.1-15-24.7-42-25.2-57.4-0.8z" fill="#FFFFFF" p-id="12854"></path><path d="M626 514.8c-8.6 13.1-11 27.7-9.3 43.1 1.5 13.2 5.6 25.2 15.6 34.5 9.7 9 24 9.1 33.5-0.1 11.8-11.4 16.2-25.8 16-43.7 0.4-10.8-2.4-22.4-9.1-33.1-12.1-19.5-34.1-19.9-46.7-0.7z" fill="#B1403B" p-id="12855"></path><path d="M355.2 505.2c-10.5 16.7-13.5 35.2-11.4 54.8 1.8 16.8 6.9 32.1 19.2 43.8 11.9 11.4 29.5 11.5 41.1-0.1 14.5-14.5 19.9-32.8 19.6-55.6 0.5-13.7-3-28.5-11.1-42.1-14.9-24.7-41.9-25.2-57.4-0.8z" fill="#FFFFFF" p-id="12856"></path><path d="M360.5 514.8c-8.6 13.1-11 27.7-9.3 43.1 1.5 13.2 5.6 25.2 15.6 34.5 9.7 9 24 9.1 33.5-0.1 11.8-11.4 16.2-25.8 16-43.7 0.4-10.8-2.4-22.4-9.1-33.1-12.2-19.5-34.2-19.9-46.7-0.7z" fill="#B1403B" p-id="12857"></path><path d="M187.4 729.9m-4.6 0a4.6 4.6 0 1 0 9.2 0 4.6 4.6 0 1 0-9.2 0Z" fill="#FFFFFF" p-id="12858"></path><path d="M212.8 744.2m-4.6 0a4.6 4.6 0 1 0 9.2 0 4.6 4.6 0 1 0-9.2 0Z" fill="#FFFFFF" p-id="12859"></path><path d="M232 764m-4.6 0a4.6 4.6 0 1 0 9.2 0 4.6 4.6 0 1 0-9.2 0Z" fill="#FFFFFF" p-id="12860"></path><path d="M249.1 785.5m-4.6 0a4.6 4.6 0 1 0 9.2 0 4.6 4.6 0 1 0-9.2 0Z" fill="#FFFFFF" p-id="12861"></path><path d="M268.4 810.1m-4.6 0a4.6 4.6 0 1 0 9.2 0 4.6 4.6 0 1 0-9.2 0Z" fill="#FFFFFF" p-id="12862"></path><path d="M296 827.7m-4.6 0a4.6 4.6 0 1 0 9.2 0 4.6 4.6 0 1 0-9.2 0Z" fill="#FFFFFF" p-id="12863"></path><path d="M339.8 832.3m-4.6 0a4.6 4.6 0 1 0 9.2 0 4.6 4.6 0 1 0-9.2 0Z" fill="#FFFFFF" p-id="12864"></path><path d="M377.7 836.7m-4.6 0a4.6 4.6 0 1 0 9.2 0 4.6 4.6 0 1 0-9.2 0Z" fill="#FFFFFF" p-id="12865"></path></svg>