<?xml version="1.0" standalone="no"?><!DOCTYPE svg PUBLIC "-//W3C//DTD SVG 1.1//EN" "http://www.w3.org/Graphics/SVG/1.1/DTD/svg11.dtd"><svg t="1570611955192" class="icon" viewBox="0 0 1024 1024" version="1.1" xmlns="http://www.w3.org/2000/svg" p-id="9531" xmlns:xlink="http://www.w3.org/1999/xlink" width="128" height="128"><defs><style type="text/css"></style></defs><path d="M873.818182 162.181818c-24.363636-49.818182-83.272727-5.818182-98.181818-21.454545-76.363636-78.545455-168.727273-98.181818-241.090909-101.818182h-40c-72.727273 1.818182-165.090909 22.909091-241.09091 101.818182-14.909091 15.636364-74.181818-28.363636-98.181818 21.454545-28 58.181818 57.090909 64 52.727273 89.818182-8.363636 46.545455-2.909091 115.636364 3.636364 183.636364C221.818182 550.909091 135.636364 826.909091 314.909091 937.818182c33.818182 21.090909 125.090909 32.727273 204.363636 34.545454h0.727273c79.272727-1.818182 159.636364-13.454545 193.454545-34.545454 179.636364-110.909091 93.454545-386.909091 104-502.181818 6.181818-68 11.636364-137.090909 3.636364-183.636364-4.363636-25.818182 80.727273-32 52.727273-89.818182z" fill="#8CC5E7" p-id="9532"></path><path d="M640.727273 197.454545c-121.454545 14.181818-105.090909 140.727273-58.181818 181.818182 87.272727 76.363636 178.181818 0 168-77.090909-9.090909-74.181818-72-109.090909-109.818182-104.727273z" fill="#E0DEDC" p-id="9533"></path><path d="M649.090909 306.545455m-41.454545 0a41.454545 41.454545 0 1 0 82.909091 0 41.454545 41.454545 0 1 0-82.909091 0Z" fill="#111212" p-id="9534"></path><path d="M638.181818 288.727273m-13.090909 0a13.090909 13.090909 0 1 0 26.181818 0 13.090909 13.090909 0 1 0-26.181818 0Z" fill="#FFFFFF" p-id="9535"></path><path d="M514.545455 389.090909c-58.181818 8.727273-78.909091 25.454545-74.545455 51.636364 7.272727 42.909091 144.363636 38.181818 148.727273 2.181818 3.636364-30.909091-51.272727-57.090909-74.181818-53.818182z" fill="#B8937F" p-id="9536"></path><path d="M477.090909 406.545455c-9.818182 35.636364 78.909091 30.181818 76.727273 7.272727-1.090909-13.454545-13.090909-30.545455-44.727273-29.818182-12.363636 0.363636-27.636364 5.818182-32 22.545455z" p-id="9537"></path><path d="M480 464.363636c-3.272727 1.454545-8.727273 37.090909 8 38.909091 11.272727 1.090909 42.181818 4.727273 49.454545 0 14.181818-9.090909 12.727273-30.909091 4.727273-36.363636-13.454545-8.727273-58.545455-4.363636-62.181818-2.545455zM387.636364 197.454545c121.454545 14.181818 105.090909 140.727273 58.181818 181.818182-87.272727 76.363636-178.181818 0-168-77.090909 9.454545-74.181818 72.363636-109.090909 109.818182-104.727273z" fill="#E0DEDC" p-id="9538"></path><path d="M379.636364 306.545455m-41.454546 0a41.454545 41.454545 0 1 0 82.909091 0 41.454545 41.454545 0 1 0-82.909091 0Z" fill="#111212" p-id="9539"></path><path d="M390.545455 288.727273m-13.09091 0a13.090909 13.090909 0 1 0 26.181819 0 13.090909 13.090909 0 1 0-26.181819 0Z" fill="#FFFFFF" p-id="9540"></path><path d="M824 678.909091c40 0.363636 20.363636-85.454545-4.363636-68.363636-12 8.363636-14.181818 27.636364-14.181819 44 0 9.090909 7.272727 24 18.545455 24.363636zM204.727273 678.909091c-40 0.363636-20.363636-85.454545 4.363636-68.363636 12 8.363636 14.181818 27.636364 14.181818 44 0 9.090909-7.272727 24-18.545454 24.363636zM748 942.545455c-21.818182-32.363636-41.454545-7.272727-73.090909 8.727272-14.909091 7.636364 24.727273 34.909091 69.090909 14.545455 11.636364-5.454545 11.272727-12.727273 4-23.272727zM280.727273 946.181818c21.818182-32.363636 41.454545-7.272727 73.090909 8.727273 14.909091 7.636364-24.727273 34.909091-69.090909 14.545454-11.636364-5.454545-11.272727-12.727273-4-23.272727z" fill="#B8937F" p-id="9541"></path><path d="M805.818182 170.909091c-2.181818 7.636364 7.636364 6.545455 11.272727 30.181818 1.454545 8.727273 32.727273-12.727273 20-28.363636-10.545455-13.090909-29.454545-9.454545-31.272727-1.818182zM222.909091 170.909091c2.181818 7.636364-7.636364 6.545455-11.272727 30.181818-1.454545 8.727273-32.727273-12.727273-20-28.363636 10.181818-13.090909 29.090909-9.454545 31.272727-1.818182z" fill="#3C89BF" p-id="9542"></path></svg>