<?xml version="1.0" standalone="no"?><!DOCTYPE svg PUBLIC "-//W3C//DTD SVG 1.1//EN" "http://www.w3.org/Graphics/SVG/1.1/DTD/svg11.dtd"><svg t="1570684197233" class="icon" viewBox="0 0 1024 1024" version="1.1" xmlns="http://www.w3.org/2000/svg" p-id="17133" xmlns:xlink="http://www.w3.org/1999/xlink" width="128" height="128"><defs><style type="text/css"></style></defs><path d="M977.92 454.997333c21.845333-51.2 21.504-101.376 7.850667-141.653333-16.725333-49.152-84.992-113.664-106.837334-88.064-2.730667 3.413333-41.984-1.024-48.469333 7.509333-9.216 12.288-3.754667 16.384 0.682667 20.48 13.653333 12.288 49.152 25.941333 64.853333 67.584 6.826667 17.749333 22.186667 59.050667-4.437333 83.968-30.72 27.989333-65.194667 34.474667-205.824-96.597333C535.893333 168.618667 333.824 225.28 267.264 247.466667c-66.901333 22.186667-97.28 44.373333-70.997333 95.914666 35.84 69.973333 23.893333 48.469333 58.709333 106.154667 55.296 91.818667 175.786667-42.325333 175.786667-42.325333-89.770667 135.509333-166.912 102.4-196.608 55.637333-26.282667-42.666667-47.445333-91.818667-47.445334-91.818667-227.669333 81.92-165.888 444.416-165.888 444.416h112.981334c29.013333-133.461333 132.096-128.341333 149.504 0h86.357333c76.117333-260.778667 239.616 0 239.616 0H706.56c0-138.922667-14.336-191.488 56.661333-201.045333 121.173333-16.725333 177.834667-73.386667 214.698667-159.402667z" fill="#02303A" p-id="17134"></path><path d="M995.328 360.789333c-20.48 1.706667-40.96 5.461333-60.757333 10.581334-0.682667 0.682667-1.024 1.365333-1.706667 2.389333-8.874667 9.898667-19.797333 19.797333-32.426667 25.258667-1.706667 1.024-3.072 1.706667-5.12 2.389333-1.024 1.024-2.048 2.389333-3.413333 3.413333-30.72 27.989333-67.925333 34.474667-205.824-96.597333C537.258667 167.594667 334.506667 225.962667 267.605333 247.808s-97.28 44.032-70.997333 95.573333c35.84 69.973333 23.893333 48.469333 58.709333 106.154667 55.296 91.818667 175.786667-42.325333 175.786667-42.325333-89.770667 135.509333-166.912 102.4-196.608 55.637333-26.282667-42.666667-47.445333-91.818667-47.445333-91.818667-228.010667 81.92-166.229333 444.416-166.229334 444.416h112.981334c29.013333-133.461333 132.096-128.341333 149.504 0h86.357333c76.117333-260.778667 239.616 0 239.616 0H706.56c0-138.922667-14.336-191.488 56.661333-201.045333 121.173333-16.725333 177.834667-73.386667 214.698667-159.061333 13.994667-33.109333 19.114667-65.194667 17.408-94.549334z" fill="#02303A" p-id="17135"></path><path d="M584.362667 397.312l122.538666 40.618667c-3.754667 18.773333-38.912 54.954667-84.309333 39.594666-59.733333-20.138667-38.570667-80.213333-38.229333-80.213333z" fill="#FFFFFF" p-id="17136"></path><path d="M612.693333 438.272c-1.706667-16.725333 10.581333-31.744 27.989334-33.450667s32.768 10.24 34.474666 26.965334-10.581333 31.744-27.989333 33.450666-32.768-10.24-34.474667-26.965333z m219.136-184.661333c3.754667 3.413333 8.874667 6.826667 13.653334 9.898666 23.552-19.456 54.272-19.114667 79.530666-29.696-22.869333-21.162667-59.050667-37.546667-70.656-23.552-2.730667 3.413333-17.066667 14.336-23.552 22.869334-9.216 12.288-4.096 16.384 1.024 20.48z" fill="#02303A" p-id="17137"></path></svg>