<?xml version="1.0" standalone="no"?><!DOCTYPE svg PUBLIC "-//W3C//DTD SVG 1.1//EN" "http://www.w3.org/Graphics/SVG/1.1/DTD/svg11.dtd"><svg t="1570683153045" class="icon" viewBox="0 0 1961 1024" version="1.1" xmlns="http://www.w3.org/2000/svg" p-id="11971" xmlns:xlink="http://www.w3.org/1999/xlink" width="245.125" height="128"><defs><style type="text/css"></style></defs><path d="M1.462857 0v1024h147.748572c332.068571-444.708571 1013.76-757.76 1812.48-788.48V0H1.462857z" fill="#109CF1" p-id="11972"></path><path d="M149.211429 1024h1812.48V235.52C1162.971429 266.24 481.28 579.291429 149.211429 1024z m1337.051428-149.211429h-77.531428V686.08H1256.594286v188.708571h-77.531429V443.245714h77.531429v169.691429h152.137143V443.245714h77.531428v431.542857z m313.051429 0h-258.925715c2.925714-29.257143 11.702857-57.051429 24.868572-81.92 13.165714-24.868571 40.96-59.977143 83.382857-103.862857 33.645714-35.108571 54.125714-58.514286 61.44-70.217143 10.24-17.554286 14.628571-33.645714 14.628571-51.2 0-19.017143-4.388571-32.182857-13.165714-42.422857-8.777143-10.24-20.48-14.628571-36.571428-14.628571s-27.794286 5.851429-36.571429 16.091428c-8.777143 10.24-14.628571 27.794286-16.091429 51.2l-73.142857-8.777142c4.388571-45.348571 17.554286-77.531429 40.96-98.011429 23.405714-20.48 52.662857-29.257143 86.308572-29.257143 38.034286 0 67.291429 11.702857 89.234285 35.108572 21.942857 23.405714 32.182857 51.2 32.182858 86.308571 0 19.017143-2.925714 38.034286-8.777143 55.588571-5.851429 17.554286-16.091429 36.571429-29.257143 55.588572-8.777143 13.165714-24.868571 30.72-48.274286 55.588571-23.405714 24.868571-38.034286 39.497143-43.885714 48.274286-5.851429 7.314286-11.702857 16.091429-14.628572 23.405714h146.285715v73.142857z" fill="#1E8BE8" p-id="11973"></path></svg>