<?xml version="1.0" standalone="no"?><!DOCTYPE svg PUBLIC "-//W3C//DTD SVG 1.1//EN" "http://www.w3.org/Graphics/SVG/1.1/DTD/svg11.dtd"><svg t="1570611248808" class="icon" viewBox="0 0 1024 1024" version="1.1" xmlns="http://www.w3.org/2000/svg" p-id="3652" xmlns:xlink="http://www.w3.org/1999/xlink" width="128" height="128"><defs><style type="text/css"></style></defs><path d="M109.014354 0C89.416268 0 69.818182 19.598086 69.818182 39.196172v945.607656c0 19.598086 19.598086 39.196172 39.196172 39.196172h805.971292c19.598086 0 39.196172-19.598086 39.196172-39.196172V222.92823L728.803828 0H109.014354z" fill="#FC851A" p-id="3653"></path><path d="M728.803828 0v183.732057c0 19.598086 19.598086 39.196172 39.196172 39.196173H951.732057L728.803828 0z" fill="#FFB171" p-id="3654"></path><path d="M613.665072 580.593301l-9.799043 105.339713-93.090909 26.947369-93.090909-26.947369-4.899522-66.14354h-83.291866l12.248804 132.287081 169.033493 46.545455 169.033492-46.545455 24.497608-254.77512H400.535885l-7.349282-85.741626h318.468899l7.349283-80.842106h-416.45933l24.497607 249.875598z" fill="#FFFFFF" p-id="3655"></path></svg>