<?xml version="1.0" standalone="no"?><!DOCTYPE svg PUBLIC "-//W3C//DTD SVG 1.1//EN" "http://www.w3.org/Graphics/SVG/1.1/DTD/svg11.dtd"><svg t="1570610508893" class="icon" viewBox="0 0 1024 1024" version="1.1" xmlns="http://www.w3.org/2000/svg" p-id="903" xmlns:xlink="http://www.w3.org/1999/xlink" width="128" height="128"><defs><style type="text/css"></style></defs><path d="M640 64l256 256v608c0 19.2-12.8 32-32 32H160c-19.2 0-32-12.8-32-32V96c0-19.2 12.8-32 32-32h480z" fill="#FFC93A" p-id="904"></path><path d="M467.2 505.6v153.6c0 25.6-6.4 44.8-16 57.6-12.8 12.8-32 19.2-57.6 19.2-22.4 0-38.4-6.4-51.2-19.2-12.8-12.8-19.2-28.8-19.2-51.2v-6.4h35.2v6.4c0 25.6 12.8 41.6 35.2 41.6 12.8 0 22.4-3.2 28.8-12.8 6.4-6.4 9.6-19.2 9.6-35.2v-153.6h35.2zM656 518.4c16 12.8 25.6 28.8 25.6 54.4h-35.2c-3.2-16-9.6-25.6-19.2-32-9.6-6.4-22.4-9.6-38.4-9.6s-25.6 3.2-35.2 6.4c-9.6 6.4-16 12.8-16 25.6 0 9.6 6.4 19.2 16 25.6 6.4 3.2 19.2 6.4 38.4 12.8 32 9.6 51.2 16 60.8 22.4 19.2 12.8 28.8 28.8 28.8 48s-6.4 35.2-22.4 48-38.4 16-67.2 16-48-6.4-64-16c-19.2-12.8-28.8-35.2-32-64h35.2c3.2 19.2 9.6 32 19.2 38.4 9.6 6.4 22.4 9.6 41.6 9.6 16 0 32-3.2 41.6-9.6s16-12.8 16-22.4c0-12.8-6.4-22.4-22.4-28.8-6.4-3.2-19.2-6.4-44.8-16-28.8-9.6-44.8-16-51.2-19.2-16-9.6-25.6-25.6-25.6-44.8s9.6-35.2 25.6-48c16-9.6 35.2-16 60.8-16 28.8 0 48 6.4 64 19.2z" fill="#FFFFFF" p-id="905"></path><path d="M640 64l256 256h-224c-19.2 0-32-12.8-32-32V64z" fill-opacity=".2" p-id="906"></path></svg>