<?xml version="1.0" standalone="no"?><!DOCTYPE svg PUBLIC "-//W3C//DTD SVG 1.1//EN" "http://www.w3.org/Graphics/SVG/1.1/DTD/svg11.dtd"><svg t="1570681928398" class="icon" viewBox="0 0 1024 1024" version="1.1" xmlns="http://www.w3.org/2000/svg" p-id="1555" xmlns:xlink="http://www.w3.org/1999/xlink" width="128" height="128"><defs><style type="text/css"></style></defs><path d="M849.748876 723.107078c31.63207-60.713166 5.101947-142.854509-38.774796-228.057021S726.791959 399.133458 694.649694 307.298417c-37.244211-119.385554 0-58.672388-25.509734-179.078332A153.058403 153.058403 0 0 0 499.245133 1.181611 169.996866 169.996866 0 0 0 394.655224 52.201078c-40.305379 43.876742-30.611681 204.07787-20.917981 260.70948S313.024076 430.765528 302.309988 447.091758c-19.285359 37.244211-36.325861 75.559832-51.019468 114.793802-9.183504 25.509734-45.917521 84.692316-46.93791 98.977767s0 41.835963 6.122336 44.386937H205.883194v-3.061168c37.244211-40.305379 102.038935 43.366547 116.834581 85.202511s69.896671 90.814652 87.24329 142.854509a67.345697 67.345697 0 0 1-9.693699 57.651999c47.805241-11.5304 96.78393-17.346619 145.915677-17.346619a366.625894 366.625894 0 0 1 99.487962 9.693698c0.510195 6.071317 2.653012 11.836516 6.122336 16.836425a163.262296 163.262296 0 0 1-6.122336-93.875821c12.44875-53.825538 17.24458-109.130641 14.285451-164.282685-4.591752-29.081097 35.203433-24.999539 40.815574-25.509734a15.765015 15.765015 0 0 1 14.795646 23.468955c-7.65292 18.877203 17.346619 47.9583 47.448105 45.407326a96.936988 96.936988 0 0 0 66.325308-46.93791 18.367008 18.367008 0 0 1 27.040317-8.163115 9.489621 9.489621 0 0 0-6.63253-4.081557z" fill="#020200" p-id="1556"></path><path d="M487.000461 919.532028c43.366547 0 113.263218 0 201.016702-123.467112 33.672849-41.835963 0-56.121414 0-64.284529s26.019928-18.367008 24.489345-51.019468-6.122336-136.221979-36.223822-173.976384a398.360003 398.360003 0 0 1-42.346158-111.732634 427.594158 427.594158 0 0 1-27.040318-51.019468c0-6.632531-15.816035-47.9583-15.816035-47.958299l-200.506508-10.203894a613.764195 613.764195 0 0 1 0 88.773874c-1.020389 7.65292-31.63207 54.080636-38.774795 69.386476s-15.30584 55.101025-18.877203 61.223361-72.957839 121.936528-51.019468 198.975924a13.673217 13.673217 0 0 0 0 4.081557c12.244672 13.775256 82.141343 62.753945 122.446722 102.038935 7.142725 12.142633 7.142725 27.142357 0 39.28499-10.458991 5.408064-21.938371 8.673309-33.672848 9.693699 48.468494 57.141804 33.162654 60.202972 116.324386 60.202972z" fill="#FFFFFF" p-id="1557"></path><path d="M869.136273 783.310049a95.406404 95.406404 0 0 0-10.714088-56.631609 18.367008 18.367008 0 0 0-27.040318 8.163115 96.936988 96.936988 0 0 1-66.325308 46.93791c-30.101486 0-55.101025-26.530123-47.448105-45.407326a15.816035 15.816035 0 0 0-16.836424-20.917982c-5.612141 0-45.407326-3.571363-40.815574 25.509734a589.019754 589.019754 0 0 1-14.285451 164.282686 170.302983 170.302983 0 0 0 3.571363 93.87582c4.132577 5.969278 9.336563 11.173263 15.30584 15.305841a120.916138 120.916138 0 0 0 87.753484 2.550973c33.162654-10.203894 28.060707-32.652459 94.386016-71.937449 106.120493-57.651998 102.038935-65.304919 96.936988-83.161732s-78.56998-57.141804-74.488423-78.569981zM414.552817 930.756311c-17.346619-51.019468-74.998617-102.038935-87.24329-142.85451S247.719158 664.43469 210.474946 702.699291v3.061168a351.524132 351.524132 0 0 1-51.019467 58.672387c-9.693699 7.142725-62.753945 10.203894-72.447644 26.019929s3.571363 69.896671 3.061168 89.284068-19.387398 51.019468-4.081558 63.774335a445.757089 445.757089 0 0 0 137.242368 41.325768c23.468955 0 80.610759 40.305379 117.344776 36.223822a74.998617 74.998617 0 0 0 63.774334-31.121875 67.345697 67.345697 0 0 0 10.203894-59.182582z" fill="#F6DC00" p-id="1558"></path><path d="M414.552817 149.648262c8.163115 0 33.162654 0 44.386937 38.774795a73.978228 73.978228 0 0 1-22.448566 77.549591c-8.673309 0-45.917521 5.101947-47.448105-58.672388s25.509734-57.651998 25.509734-57.651998zM545.672849 141.995341c11.734478 0 43.366547 0 56.631609 56.63161s-55.61122 80.610759-62.243751 80.100564S501.796106 277.196931 500.775717 205.259481s44.897132-63.26414 44.897132-63.26414z" fill="#FFFFFF" p-id="1559"></path><path d="M476.286373 220.055127c16.938463-0.408156 33.621829 4.234616 47.958299 13.265062 19.591476 9.642679 40.101302 17.346619 61.223361 22.95876a23.97915 23.97915 0 0 1 14.795646 29.081096c-3.571363 17.346619-8.673309 35.713627-23.97915 37.754407a186.629213 186.629213 0 0 0-51.019467 28.570901c-14.642587 8.316173-31.121875 12.856906-47.9583 13.265062a78.56998 78.56998 0 0 1-59.182582-29.081097c-21.428176-19.897592-33.162654-30.101486-33.162654-47.958299A128.518039 128.518039 0 0 1 476.286373 220.055127z" fill="#F6DC00" p-id="1560"></path><path d="M443.123719 243.524082s11.224283 3.061168 15.30584-6.632531c0 0-17.346619 1.530584-15.30584 6.632531zM505.877664 245.054666c4.081557 0 0-15.30584-16.32623-12.244672 0 0 4.081557 3.571363 7.142726 7.142725s5.612141 6.632531 9.183504 5.101947z" fill="#BC5705" p-id="1561"></path><path d="M460.980532 333.82854A96.120677 96.120677 0 0 1 397.716393 307.298417c18.520067 17.907833 43.672664 27.142357 69.386475 25.509733a234.893629 234.893629 0 0 0 110.712245-54.080635h2.550974a238.362953 238.362953 0 0 1-110.712245 54.59083L460.980532 333.82854z" fill="#752700" p-id="1562"></path><path d="M402.618605 221.300004a33.672849 21.938371 75.712 1 0 42.519522-10.828607 33.672849 21.938371 75.712 1 0-42.519522 10.828607Z" fill="#000200" p-id="1563"></path><path d="M523.224283 213.932791a32.652459 27.550513 90 1 0 55.101025 0 32.652459 27.550513 90 1 0-55.101025 0Z" fill="#000200" p-id="1564"></path><path d="M430.879046 222.6061a6.122336 6.122336 0 0 1-6.122336-6.122336 21.428176 21.428176 0 0 0-6.63253-15.30584 6.632531 6.632531 0 0 1 0-9.183504 7.142725 7.142725 0 0 1 9.183504 0 33.111634 33.111634 0 0 1 11.224283 25.509734 6.122336 6.122336 0 0 1-6.887628 5.255005L430.879046 222.6061zM563.019468 209.341039a6.122336 6.122336 0 0 1-4.591752-4.081558 22.601624 22.601624 0 0 0-7.652921-8.163114 6.632531 6.632531 0 0 1 0-8.67331 6.122336 6.122336 0 0 1 8.67331 0c5.816219 3.571363 10.305932 8.928407 12.754867 15.30584a6.632531 6.632531 0 0 1-4.591752 7.65292L563.019468 209.341039z" fill="#C5C1BF" p-id="1565"></path></svg>