<?xml version="1.0" standalone="no"?><!DOCTYPE svg PUBLIC "-//W3C//DTD SVG 1.1//EN" "http://www.w3.org/Graphics/SVG/1.1/DTD/svg11.dtd"><svg t="1570612641305" class="icon" viewBox="0 0 1024 1024" version="1.1" xmlns="http://www.w3.org/2000/svg" p-id="14066" xmlns:xlink="http://www.w3.org/1999/xlink" width="128" height="128"><defs><style type="text/css"></style></defs><path d="M517.469712 517.468619m-386.008658 0a386.008657 386.008657 0 1 0 772.017315 0 386.008657 386.008657 0 1 0-772.017315 0Z" fill="#000080" p-id="14067"></path><path d="M677.361247 357.577084m-113.059655 0a113.059654 113.059654 0 1 0 226.119309 0 113.059654 113.059654 0 1 0-226.119309 0Z" fill="#FFFFFF" p-id="14068"></path><path d="M903.478369 131.459962m-113.060747 0a113.060747 113.060747 0 1 0 226.121494 0 113.060747 113.060747 0 1 0-226.121494 0Z" fill="#000080" p-id="14069"></path><path d="M412.902591 710.46803v-28.488401H287.834707V457.204525h-32.309004v253.263505h157.376888m173.629746 0V528.424435h-28.834834V628.825614c0 37.173276-19.454907 61.492457-49.679847 61.492456-22.927983 0-37.51971-13.896674-37.519709-35.783171V528.424435h-28.835928v137.574455c0 30.224939 22.58155 49.680939 58.018288 49.680939 26.750771 0 43.774088-9.38102 60.796312-33.352674v28.140875h26.056811m211.79533-0.695052v-21.886498c-3.12555 0.693959-4.515654 0.693959-6.253285 0.69396-10.07498 0-15.633212-5.210707-15.633212-14.243108v-101.44485c0-32.309003-23.624128-49.679846-68.439702-49.679846-44.121614 0-71.21991 17.023317-72.956448 59.059774h29.182361c2.43159-22.234023 15.633212-32.309003 42.731509-32.309003 26.055718 0 40.647445 9.727454 40.647445 27.098296v7.64339c0 12.159044-7.295863 17.36975-30.224939 20.149959-40.994971 5.210707-47.248256 6.600811-58.365815 11.116466-21.191445 8.685968-31.961477 25.014233-31.961477 47.248256 0 33.004055 22.929076 52.458963 59.754826 52.458962 23.276602 0 45.858152-9.726361 61.838891-26.75077 3.127735 13.896674 15.634305 23.971654 29.878505 23.971654 5.905759 0 10.421413-0.695052 19.802434-3.126642m-50.722425-62.186417c0 26.055718-26.403244 42.730416-54.54412 42.730417-22.58155 0-35.783172-7.98873-35.783171-27.791164 0-19.108474 12.854096-27.445823 43.774087-31.96257 30.572465-4.169221 36.82575-5.558233 46.553204-10.076072v27.099389" fill="#FFFFFF" p-id="14070"></path></svg>