<?xml version="1.0" standalone="no"?><!DOCTYPE svg PUBLIC "-//W3C//DTD SVG 1.1//EN" "http://www.w3.org/Graphics/SVG/1.1/DTD/svg11.dtd"><svg t="1570682664640" class="icon" viewBox="0 0 1024 1024" version="1.1" xmlns="http://www.w3.org/2000/svg" p-id="9652" xmlns:xlink="http://www.w3.org/1999/xlink" width="128" height="128"><defs><style type="text/css"></style></defs><path d="M535.303939 1024l-27.255707-9.326262s3.320267-138.964261-46.557528-148.939821c-33.232188-38.559373 5.341941-1635.726078 125.019138-5.312427 0 0-41.230344 20.659442-48.549689 55.854277-7.983399 34.575052-2.656214 107.724233-2.656214 107.724233z" fill="#FFFFFF" p-id="9653"></path><path d="M535.303939 1024l-27.255707-9.326262s3.320267-138.964261-46.557528-148.939821c-33.232188-38.559373 5.341941-1635.726078 125.019138-5.312427 0 0-41.230344 20.659442-48.549689 55.854277-7.983399 34.575052-2.656214 107.724233-2.656214 107.724233z" fill="#A6A385" p-id="9654"></path><path d="M549.927873 889.684113S788.647725 732.746138 732.808205 406.267927C678.931331 168.890938 551.93479 91.093383 538.01918 61.181462 522.672166 39.84321 508.048232 2.670971 508.048232 2.670971l9.97556 660.26101c0 0.664053-20.659442 202.167397 31.918837 226.752132" fill="#FFFFFF" p-id="9655"></path><path d="M549.927873 889.684113S788.647725 732.746138 732.808205 406.267927C678.931331 168.890938 551.93479 91.093383 538.01918 61.181462 522.672166 39.84321 508.048232 2.670971 508.048232 2.670971l9.97556 660.26101c0 0.664053-20.659442 202.167397 31.918837 226.752132" fill="#499D4A" p-id="9656"></path><path d="M494.088352 898.316809S269.992433 745.377911 283.303017 476.096841C296.008574 206.801015 454.186116 74.477288 484.76209 50.541849c19.951118-21.279225 20.659442-29.262624 21.958035-50.541849 13.95988 29.926677 11.303666 447.498271 13.28107 496.697256 5.991238 189.491353-10.624856 365.716394-25.912843 401.619553z" fill="#FFFFFF" p-id="9657"></path><path d="M494.088352 898.316809S269.992433 745.377911 283.303017 476.096841C296.008574 206.801015 454.186116 74.477288 484.76209 50.541849c19.951118-21.279225 20.659442-29.262624 21.958035-50.541849 13.95988 29.926677 11.303666 447.498271 13.28107 496.697256 5.991238 189.491353-10.624856 365.716394-25.912843 401.619553z" fill="#58AA50" p-id="9658"></path></svg>