<?xml version="1.0" standalone="no"?><!DOCTYPE svg PUBLIC "-//W3C//DTD SVG 1.1//EN" "http://www.w3.org/Graphics/SVG/1.1/DTD/svg11.dtd"><svg t="1570682558118" class="icon" viewBox="0 0 1024 1024" version="1.1" xmlns="http://www.w3.org/2000/svg" p-id="7579" xmlns:xlink="http://www.w3.org/1999/xlink" width="128" height="128"><defs><style type="text/css"></style></defs><path d="M715.8 312.4l-5.6-11.7c-2.4-3.4-5.9-6-7.9-10h-0.6v-0.6c3.3-0.8 6.7-1.2 10.1-1.1 2 1.9 5.1 3.3 6.7 5.6 1.2 1.7 1.4 3.6 2.8 5 0 5.9-1.6 9.8-5.1 12.3 0.2-0.1-0.4 0.5-0.4 0.5z m251.9 251.1c-9.3-5.9-20.1-9.2-29.8-15.1-5.4-3.3-10.7-7.4-15.7-11.2-4.7-3.5-9.9-10.1-12.9-15.1-1.6-2.6-1.9-5.7-3.9-7.8 0.6-4.6 6.4-4.6 10.1-6.1 12.9-5.4 28-7.2 47.8-6.7-0.6-5-12.9-11.2-16.9-13.9-8-5.6-16.2-11.6-24.7-16.8-4.5-2.7-12.2-4.7-16.9-6.7-6.7-2.8-21.5-5.5-25.3-10.6-7.3-9.6-12.3-21.3-17.4-32.9-5.2-11.6-11.7-23.8-16.9-35.7-2.6-5.9-3.8-11.2-6.7-16.7-18.1-34.5-44.6-63.4-77-83.7-10.6-6.7-22.4-12.8-35.4-16.7-7.4-2.2-16.3-1-24.2-2.8h-5.1c-4.4-1.3-8.1-6-11.8-8.4-7.6-5-15.2-8.6-24.2-12.3-3.4-1.4-12.5-4.7-15.7-2.2-1.9 0.6-2.8 1.4-3.4 3.3-1.9 2.9-0.2 7.3 1.1 10 3.6 7.8 8.8 12.5 13.5 19 4.2 5.8 9.3 12.4 12.4 19 6.3 13.7 9.2 28.9 15.2 42.4 2.3 5.2 5.7 11.1 9 15.6 2.7 3.6 7.5 6.4 9 11.2 3.1 4.8-4.5 21.1-6.2 26.2-6.5 20-5.1 47.9 2.2 65.3 2.9 6.9 5.7 14.9 13.5 16.7 0.6-0.4 0.1-0.2 1.1-0.5 1.7-13.4 2.2-26.3 6.7-36.8 2.8-6.6 8.2-11.1 11.8-16.7 2.7 1.5 2.6 6 3.9 8.9 3.3 7.6 6.8 15.9 10.7 23.4 8.3 15.7 17.3 30.8 27.6 44.6 3.6 4.9 8.5 10.2 12.9 14.5 1.9 1.8 4.2 2.8 5.6 5h0.6v0.6c-7.6-2.6-12.1-10.1-18-14.5-11.3-8.4-24.6-21-32-32.9l-10.1-20.1v-0.6c-1.4 1.9-1 3.9-1.7 6.7-3.2 12.3-0.7 26.2-11.8 30.7-12.7 5.1-21.9-8.3-25.9-14.5-12.8-20.3-16.1-54.5-7.3-82 1.9-6.1 2.1-13.6 5.6-18.4-0.6-4.3-4.1-5.6-6.2-8.4-3.4-4.6-6.3-10-9-15.1-5.3-10.1-8.8-22-12.9-32.9-1.7-4.4-2-8.6-3.9-12.8-2.9-6.4-8.2-12.7-12.4-18.4-5.9-8.1-22.3-23.7-15.7-39.6 10.4-25.3 46.6-6.1 60.7 2.8 3.5 2.2 7.5 6.8 11.2 8.4l18.6 1.1c11.5 2.7 22.4 4.8 31.5 10 42.6 24.7 70 49.9 95.6 91.5 5.3 8.7 8.1 18.2 12.4 27.9 6.3 14.4 13 28.5 20.3 42.4 3.4 6.4 5.8 13.5 10.1 19 1.8 2.3 6.8 3.1 9.6 4.5 8.3 4.2 18 7.3 25.9 12.3 14.2 8.9 27.9 19.5 40.5 30.1 4.8 4.1 8 10 12.4 14.5v2.2c-3.9 1.1-7.9 2.2-11.8 3.3-8.7 2.2-16.3 1.7-24.7 3.9-5 1.3-11.4 3.3-16.9 3.9l0.6 0.5c3.2 8.9 20.4 16.3 28.1 21.8 9.6 6.9 18.7 15.1 25.9 24.5l7.3 7.3c1.7 2.4 2.1 5.5 3.9 7.8v0.5c-3.4-1.2-5.2-4.2-7.9-6.1-5.7-3.8-11.1-8.1-16.6-11.6zM373 728.9H271.4v-21.5h101.7c20.7-2.2 18.3-12.4 18.3-15.8v-8.4h-68.3c-31.8-0.3-52.1-14.1-52.3-29.9 0-1.5 0.7-71 0-71.6H303v69.5c-0.3 3.8 1.2 12.6 18.8 12.9 9 0.1 69.4 0 69.9 0v-82.7h32.2c0.2 0 0 112.8 0 113.3 0.2 27.7-34.8 33.7-50.9 34.2zM211.8 558.2L162 668.1c-5.9 13.3-13.6 18-29.4 18-15.8 0-23.8-4.7-29.7-18L53.2 558.2v126.1H21V558.4c0-12.3 4.9-18.2 15.2-21.3 24.4-7.6 41.1-1 48.2 15.3l47.3 108.5 48.9-108.5c7.4-16.4 23.8-22.9 48.3-15.3 10.2 3.1 15.2 9 15.2 21.3v125.9h-32.2l-0.1-126.1z" fill="#00758F" p-id="7580"></path><path d="M659.8 536.6h61.1c3.1 0 5.9 0.2 9 0.6 27 3.7 40.6 15.4 40.6 34.7v75.9c0 15.6-5.8 24-19.1 29.5l31.7 28.4h-37.3l-25.6-23-25.8 1.6H660c-6.4 0-12.8-0.9-18.9-2.7-20.5-5.5-30.4-16.2-30.4-33.8v-75.9c0-19.3 13.6-31 40.6-34.7 2.6-0.4 5.7-0.6 8.5-0.6z m-14.6 109.3c0 1 0.3 2.1 0.6 3.3 1.9 8.8 10.2 13.7 22.9 13.7H698l-26.8-24.1h37.3l23.4 21c4.3-2.3 7.2-5.8 8.2-10.3 0.3-1 0.3-2.1 0.3-3.1v-72.8c0-0.8 0-1.9-0.3-2.9-1.9-8.2-10.2-12.9-22.6-12.9h-48.7c-14.3 0-23.6 6.2-23.6 15.8v72.3z m-148.9-88.1c-11.5 1-14.9 2.9-16.4 9.4-0.3 1-0.3 1.9-0.3 2.7v14.5c0 1 0 1.8 0.3 2.9 1.5 8.6 7.7 12.5 20.7 12.5h39c9.6 0 19.5 1.6 27.5 4.7 15.2 5.7 22.9 14.3 22.9 23.5v23.3c0 11.3-6.8 19.9-20.7 26.2-8.3 3.9-18.9 6.1-29.7 6.1h-92.5v-21.3h88.8c1.2 0 2.2-0.2 3.4-0.2 6.2-0.4 10.8-2.1 13.6-4.5 3.1-2.5 4.6-5.3 4.6-7.6v-18.6c0-2.2-0.9-4.3-2.5-5.7-3.1-3.7-7.4-5.5-17.6-6.3-0.9-0.2-2.2-0.2-3.4-0.2h-33.4c-3.1 0-6.2-0.2-9.3-0.4-27.5-2.9-43.9-15.1-43.9-29.5v-18.6c0-16.4 8.4-25.8 27.5-31.7 6.2-1.8 13-2.7 26-2.7h90.3v21.3h-91.9c-0.9 0-2.1 0.2-3 0.2z m326.5 88.6c0 11.3 7.1 16 26 16h84.4v21.3h-83.8c-3.1 0-6.2-0.2-9.3-0.4-33.1-2.4-49.5-14.7-49.5-36.6V536.3h32.2v110.1z m149.2-8.2c12.5 0 23.7 9.5 23.7 23.5 0 14.1-11.2 23.5-23.7 23.5s-23.7-9.5-23.7-23.5 11.2-23.5 23.7-23.5z m0 42.2c10.2 0 18.4-8 18.4-18.6 0-10.7-8.2-18.6-18.4-18.6-10.3 0-18.4 8-18.4 18.6 0.1 10.6 8.1 18.6 18.4 18.6z m11.3-24.3c0 4.9-3.2 6.9-7.3 7.3l7.8 11.8h-5.3l-7.1-11.6h-4.2v11.6h-4.5v-26.9h10.6c6.5 0 10 2.3 10 7.8z m-16.2-4v7.7h4.9c3.4 0 6.4-0.3 6.4-4.1 0-3.1-3.3-3.6-6-3.6h-5.3z" fill="#F2A72F" p-id="7581"></path></svg>