<?xml version="1.0" standalone="no"?><!DOCTYPE svg PUBLIC "-//W3C//DTD SVG 1.1//EN" "http://www.w3.org/Graphics/SVG/1.1/DTD/svg11.dtd"><svg t="1570682035326" class="icon" viewBox="0 0 1024 1024" version="1.1" xmlns="http://www.w3.org/2000/svg" p-id="2569" xmlns:xlink="http://www.w3.org/1999/xlink" width="128" height="128"><defs><style type="text/css"></style></defs><path d="M77.482667 512.682667V275.797333c-0.341333-8.533333 4.096-16.384 11.946666-20.138666L498.346667 19.456c7.509333-4.437333 15.701333-5.461333 22.869333-1.024L931.84 255.658667c7.168 4.096 11.264 11.946667 10.922667 20.138666v473.088c0.341333 8.192-3.754667 16.042667-10.922667 20.138667l-408.917333 235.861333c-7.509333 4.437333-17.066667 4.437333-24.917334 0L88.746667 769.024c-7.509333-4.437333-10.922667-10.24-10.922667-19.456l-0.341333-236.885333z" fill="#009438" p-id="2570"></path><path d="M366.933333 424.618667v276.138666c0 31.061333-24.917333 58.709333-58.026666 58.026667-20.138667-1.024-35.84-9.216-46.421334-26.624-5.461333-8.192-7.509333-17.408-7.509333-27.648V320.853333c0-25.6 15.701333-44.032 35.84-52.224s40.277333-6.485333 60.757333 0c19.456 5.461333 34.133333 17.408 46.421334 32.085334l244.053333 292.864c1.024 1.024 1.706667 3.072 3.754667 4.437333V318.805333c0-29.354667 20.138667-52.224 48.810666-54.954666 35.84-4.437333 59.733333 21.162667 63.488 47.786666v390.826667c0 21.845333-10.24 37.546667-28.330666 47.786667-13.653333 7.509333-28.330667 9.216-44.032 8.192-22.528-1.365333-44.032-10.581333-60.757334-25.6-9.216-8.192-15.701333-18.432-23.893333-27.648l-232.789333-278.186667c0-1.024-1.024-1.706667-1.706667-3.072l0.341333 0.682667z" fill="#FEFEFE" p-id="2571"></path></svg>