<?xml version="1.0" standalone="no"?><!DOCTYPE svg PUBLIC "-//W3C//DTD SVG 1.1//EN" "http://www.w3.org/Graphics/SVG/1.1/DTD/svg11.dtd"><svg t="1570682723594" class="icon" viewBox="0 0 1024 1024" version="1.1" xmlns="http://www.w3.org/2000/svg" p-id="9797" xmlns:xlink="http://www.w3.org/1999/xlink" width="128" height="128"><defs><style type="text/css"></style></defs><path d="M438.586112 918.784l-33.28 66.56a444.16 444.16 0 0 1-128-43.52c-17.92-7.68-30.72 15.36-12.8 23.04a537.6 537.6 0 0 0 140.8 48.64c10.24 2.56 17.92-7.68 23.04-15.36l33.28-66.56c7.68-15.36-15.36-28.16-23.04-12.8z" fill="#FFFFFF" p-id="9798"></path><path d="M983.354112 311.04A512 512 0 0 0 310.586112 41.984 515.84 515.84 0 0 0 42.042112 718.848a510.464 510.464 0 0 0 171.52 215.296c17.92 12.8 33.28-10.24 17.92-20.48a504.832 504.832 0 0 1-166.4-204.8 486.4 486.4 0 0 1-5.12-374.272A491.776 491.776 0 0 1 318.266112 65.024a477.952 477.952 0 0 1 370.944-5.12 483.584 483.584 0 0 1 265.984 261.376 486.4 486.4 0 0 1 5.12 374.272 482.816 482.816 0 0 1-256 266.496l-30.72-69.12a25.6 25.6 0 0 0-20.48-15.36 25.6 25.6 0 0 0-23.04 10.24l-71.68 102.4a21.504 21.504 0 0 0 20.48 33.28 435.2 435.2 0 0 0 133.12-38.4 517.12 517.12 0 0 0 273.664-281.6 508.672 508.672 0 0 0-2.304-392.448z" fill="#FFFFFF" p-id="9799"></path><path d="M650.810112 234.24l-140.8-76.8-138.24 84.48 5.12 158.976 140.8 79.36 138.24-84.48z m-133.12 210.176L407.866112 384l-5.12-125.696 107.52-66.56 110.08 61.44 5.12 128zM356.666112 464.896l-138.24 84.48 5.12 158.976 140.8 79.36 138.24-84.48-5.12-161.536z m7.68 287.232L254.266112 691.2l-5.12-125.696 107.52-66.56 110.08 61.44 5.12 128zM722.490112 762.368l138.24-84.48-5.12-161.536-140.8-76.8-138.24 84.48 5.12 158.976z m-7.68-289.792l110.08 61.44 5.12 128-107.52 64-110.08-60.416-5.12-125.696z" fill="#FFFFFF" p-id="9800"></path></svg>