<?xml version="1.0" standalone="no"?><!DOCTYPE svg PUBLIC "-//W3C//DTD SVG 1.1//EN" "http://www.w3.org/Graphics/SVG/1.1/DTD/svg11.dtd"><svg t="1570612197433" class="icon" viewBox="0 0 1024 1024" version="1.1" xmlns="http://www.w3.org/2000/svg" p-id="10018" xmlns:xlink="http://www.w3.org/1999/xlink" width="128" height="128"><defs><style type="text/css"></style></defs><path d="M361.28 511.232a284.544 284.544 0 0 0 33.248 145.824 154.176 154.176 0 0 0 178.528 68.16 121.248 121.248 0 0 0 87.488-101.792c3.04-17.12 3.2-17.28 3.2-17.28 49.184 7.104 128.448 18.624 177.6 25.6l-3.2 12.448A318.656 318.656 0 0 1 761.6 796.8a267.2 267.2 0 0 1-151.904 76.096 413.6 413.6 0 0 1-234.304-23.2 287.36 287.36 0 0 1-163.392-176.768A459.296 459.296 0 0 1 212.544 348.8a298.336 298.336 0 0 1 253.728-199.68 377.984 377.984 0 0 1 188.8 15.712 270.944 270.944 0 0 1 174.592 195.2c2.656 9.952 3.2 11.808 3.2 11.808-54.688 9.952-122.272 22.56-176.576 34.4-10.336-54.24-35.904-96.928-90.592-110.24a148.992 148.992 0 0 0-187.296 101.056 296.96 296.96 0 0 0-10.912 40.736 348.48 348.48 0 0 0-6.208 73.44z" fill="#C2C2C2" p-id="10019"></path><path d="M65.056 960V64h189.888v71.264H151.136v753.472h103.808V960H65.056zM958.944 959.968h-189.888v-71.296h103.808V135.232h-103.808V63.968h189.888v896z" fill="#C2C2C2" p-id="10020"></path></svg>