<?xml version="1.0" standalone="no"?><!DOCTYPE svg PUBLIC "-//W3C//DTD SVG 1.1//EN" "http://www.w3.org/Graphics/SVG/1.1/DTD/svg11.dtd"><svg t="1570682920071" class="icon" viewBox="0 0 1024 1024" version="1.1" xmlns="http://www.w3.org/2000/svg" p-id="10746" xmlns:xlink="http://www.w3.org/1999/xlink" width="128" height="128"><defs><style type="text/css"></style></defs><path d="M699.52 348.608H320.896c-82.944 0-147.84 66.816-147.84 152.256v29.76c0 85.376 64.896 152.256 147.84 152.256h378.624c82.88 0 147.84-66.88 147.84-152.256v-29.76c-0.064-78.08-68.48-152.256-147.84-152.256z" fill="#D71718" p-id="10747"></path><path d="M901.44 96H122.56C57.728 96 0 151.744 0 222.4v579.392C0 872.384 54.08 928 122.56 928h778.88c64.896 0 122.56-55.616 122.56-126.272V222.4c0-70.656-54.144-126.4-122.56-126.4z m39.616 430.784c0 137.408-108.16 252.608-245.184 252.608H317.312c-133.44 0-245.248-111.424-245.248-252.608v-29.568c0-137.408 108.16-252.544 245.248-252.544h378.56c133.376 0 245.184 111.36 245.184 252.544v29.568z" fill="#D71718" p-id="10748"></path></svg>