<?xml version="1.0" standalone="no"?><!DOCTYPE svg PUBLIC "-//W3C//DTD SVG 1.1//EN" "http://www.w3.org/Graphics/SVG/1.1/DTD/svg11.dtd"><svg t="1570610951499" class="icon" viewBox="0 0 1024 1024" version="1.1" xmlns="http://www.w3.org/2000/svg" p-id="1755" xmlns:xlink="http://www.w3.org/1999/xlink" width="128" height="128"><defs><style type="text/css"></style></defs><path d="M773.688889 409.6h-45.511111l-17.066667 147.911111h45.511111c34.133333-5.688889 62.577778-17.066667 62.577778-102.4 0-28.444444-22.755556-45.511111-45.511111-45.511111z" fill="#31C5B3" p-id="1756"></path><path d="M512 153.6C227.555556 153.6 0 312.888889 0 512s227.555556 358.4 512 358.4 512-159.288889 512-358.4-227.555556-358.4-512-358.4z m-221.866667 477.866667H227.555556l-17.066667 102.4H142.222222l56.888889-392.533334h130.844445c56.888889 5.688889 85.333333 45.511111 85.333333 108.088889 0 119.466667-62.577778 187.733333-125.155556 182.044445z m256 0L568.888889 455.111111c5.688889-22.755556 5.688889-39.822222-22.755556-39.822222h-51.2l-34.133333 250.311111H392.533333L455.111111 238.933333h68.266667L506.311111 341.333333H568.888889c56.888889 5.688889 79.644444 45.511111 73.955555 91.022223l-28.444444 233.244444H540.444444l5.688889-34.133333z m221.866667 0h-62.577778l-17.066666 102.4h-68.266667l56.888889-392.533334h130.844444c56.888889 5.688889 85.333333 45.511111 85.333334 108.088889 0 119.466667-68.266667 187.733333-125.155556 182.044445z" fill="#31C5B3" p-id="1757"></path><path d="M301.511111 409.6h-45.511111l-17.066667 147.911111H284.444444c28.444444-5.688889 56.888889-17.066667 62.577778-102.4 0-28.444444-17.066667-45.511111-45.511111-45.511111z" fill="#31C5B3" p-id="1758"></path></svg>