<svg xmlns="http://www.w3.org/2000/svg" viewBox="0 0 70 70" id="pycharm" width="100%" height="100%"><path fill="url(#pycharm_a)" d="M49.1 11L69.5 28.1 62.2 43 49.8 39.6 39.2 39.6z"></path><path fill="url(#pycharm_b)" d="M28.5 22.1L24.5 43 24.1 50.2 14.2 54.5 0 56 4.3 10.7 29.9 0 45.7 10.4z"></path><path fill="url(#pycharm_c)" d="M28.5 22.1L30.4 62.5 24 70 0 56 19.7 26.6z"></path><path fill="url(#pycharm_d)" d="M54.9 19.1L30.6 19.1 52.1 0z"></path><path fill="url(#pycharm_e)" d="M70 62.6L48.6 69.9 20.2 61.9 28.5 22.1 31.8 19.1 49.1 17.5 47.5 34.9 61.3 29.6z"></path><g><path fill="#000" d="M13.4 13.4H56.6V56.6H13.4z"></path><path fill="#FFF" d="M17.5 48.5H33.7V51.2H17.5z"></path><path d="M17.3,19.1h7.3c4.3,0,6.9,2.5,6.9,6.2v0.1c0,4.1-3.2,6.3-7.2,6.3h-3V37h-3.9V19.1z M24.4,28.1 c2,0,3.1-1.2,3.1-2.7v-0.1c0-1.8-1.2-2.7-3.2-2.7h-3v5.5H24.4z" fill="#FFF"></path><path d="M33.1,28.1L33.1,28.1c0-5.1,3.8-9.3,9.3-9.3c3.4,0,5.4,1.1,7.1,2.8l-2.5,2.9c-1.4-1.3-2.8-2-4.6-2 c-3,0-5.2,2.5-5.2,5.6V28c0,3.1,2.1,5.6,5.2,5.6c2,0,3.3-0.8,4.7-2.1l2.5,2.5c-1.8,2-3.9,3.2-7.3,3.2C37,37.3,33.1,33.2,33.1,28.1" fill="#FFF"></path></g></svg>