<?xml version="1.0" standalone="no"?><!DOCTYPE svg PUBLIC "-//W3C//DTD SVG 1.1//EN" "http://www.w3.org/Graphics/SVG/1.1/DTD/svg11.dtd"><svg t="1570682603308" class="icon" viewBox="0 0 1024 1024" version="1.1" xmlns="http://www.w3.org/2000/svg" p-id="8564" xmlns:xlink="http://www.w3.org/1999/xlink" width="128" height="128"><defs><style type="text/css"></style></defs><path d="M1023.904 611.84c-0.416 9.76-13.344 20.704-39.904 34.56-54.656 28.448-337.76 144.896-397.984 176.288-60.288 31.392-93.728 31.104-141.344 8.32-47.616-22.752-348.832-144.48-403.104-170.368-27.104-12.96-40.928-23.904-41.376-34.208v103.52c0 10.336 14.24 21.28 41.376 34.272 54.272 25.952 355.552 147.616 403.104 170.368 47.616 22.784 81.056 23.072 141.344-8.352 60.256-31.392 343.328-147.808 397.984-176.288 27.776-14.464 40.064-25.728 40.064-35.936l0.032-102.048c-0.032-0.032-0.16-0.032-0.224-0.096z" fill="#D82C20" p-id="8565"></path><path d="M1023.872 443.104c-0.48 9.76-13.344 20.64-39.84 34.528-54.656 28.448-337.76 144.896-397.984 176.288-60.288 31.392-93.728 31.104-141.344 8.352S95.872 517.792 41.6 491.872c-27.104-12.928-40.928-23.904-41.376-34.176v103.52c0 10.336 14.24 21.248 41.376 34.208 54.272 25.952 355.488 147.616 403.104 170.368 47.616 22.784 81.056 23.072 141.344-8.32 60.256-31.392 343.328-147.84 397.984-176.288 27.776-14.496 40.064-25.76 40.064-35.968l0.032-102.048-0.256-0.032z" fill="#D82C20" p-id="8566"></path><path d="M1023.872 268.064c0.512-10.4-13.088-19.552-40.48-29.6-53.248-19.488-334.624-131.488-388.512-151.264-53.888-19.712-75.808-18.912-139.136 3.808-63.328 22.752-362.912 140.256-416.224 161.12-26.656 10.496-39.712 20.192-39.264 30.496v103.52c0 10.336 14.24 21.248 41.376 34.208 54.272 25.952 355.488 147.68 403.104 170.4s81.056 23.04 141.344-8.352c60.256-31.392 343.328-147.84 397.984-176.288 27.776-14.496 40.064-25.76 40.064-35.968L1024.16 268.096h-0.352z m-657.024 97.984l237.28-36.448-71.68 105.088-165.6-68.64z m524.768-94.656l-155.52 61.408-140.256-55.424 155.392-61.44 140.384 55.456zM479.648 169.728l-22.944-42.336 71.584 28 67.488-22.112-18.272 43.744 68.768 25.76-88.704 9.216-19.872 47.776-32.096-53.28-102.432-9.216 76.448-27.552zM302.88 229.408c70.048 0 126.816 22.016 126.816 49.152s-56.8 49.152-126.816 49.152-126.848-22.048-126.848-49.152c0-27.136 56.8-49.152 126.848-49.152z" fill="#D82C20" p-id="8567"></path></svg>