<?xml version="1.0" standalone="no"?><!DOCTYPE svg PUBLIC "-//W3C//DTD SVG 1.1//EN" "http://www.w3.org/Graphics/SVG/1.1/DTD/svg11.dtd"><svg t="1570612566115" class="icon" viewBox="0 0 1239 1024" version="1.1" xmlns="http://www.w3.org/2000/svg" p-id="13151" xmlns:xlink="http://www.w3.org/1999/xlink" width="154.875" height="128"><defs><style type="text/css"></style></defs><path d="M606.208 992.148211l13.473684 14.336 11.856842-12.341895L893.844211 344.387368H322.128842l284.025263 647.760843zM17.084632 359.962947l-0.215579 0.269474 305.259789-15.845053-305.04421 15.629474z" fill="#BF596F" p-id="13152"></path><path d="M322.128842 344.387368L611.974737 1.077895h-399.36l109.514105 343.309473z m571.715369 0L1003.681684 1.077895h-391.706947l281.869474 343.309473z" fill="#E398A3" p-id="13153"></path><path d="M893.844211 344.387368l344.656842 16.330106L1003.681684 1.077895l-109.837473 343.309473zM212.614737 1.077895L0.862316 360.717474l16.168421-0.754527 305.04421-15.629473L212.560842 1.077895z" fill="#BA556C" p-id="13154"></path><path d="M322.128842 344.387368h571.715369L611.974737 1.077895 322.128842 344.387368z" fill="#BA556C" p-id="13155"></path><path d="M893.844211 344.387368l-262.305685 649.754948-11.856842 28.725895L1238.501053 360.717474l-344.656842-16.330106z m-571.715369 0l-305.259789 15.845053-7.976421 0.538947 610.789052 662.096843-13.473684-30.72-284.025263-647.814737z" fill="#A02C45" p-id="13156"></path></svg>