<?xml version="1.0" standalone="no"?><!DOCTYPE svg PUBLIC "-//W3C//DTD SVG 1.1//EN" "http://www.w3.org/Graphics/SVG/1.1/DTD/svg11.dtd"><svg t="1570612408477" class="icon" viewBox="0 0 1060 1024" version="1.1" xmlns="http://www.w3.org/2000/svg" p-id="12601" xmlns:xlink="http://www.w3.org/1999/xlink" width="132.5" height="128"><defs><style type="text/css"></style></defs><path d="M0 49.234747v794.371879h1059.166384V49.234747H0z m992.969697 728.176485H66.196687v-661.979798H992.969697v661.979798zM198.596525 909.811071h661.979798v66.196687h-661.979798v-66.196687z m0 0" fill="#666666" p-id="12602"></path><path d="M231.691636 552.340687l139.015758-139.015758-46.338586-46.338586-92.677172-92.682343-46.338585 46.343758 92.677171 92.677171-92.677171 92.675879 46.338585 46.339879z m165.49495-39.721374h463.388444v66.201859H397.186586v-66.201859z m0 0" fill="#666666" p-id="12603"></path><path d="M622.674747 381.584808m-108.556929 0a108.556929 108.556929 0 1 0 217.113859 0 108.556929 108.556929 0 1 0-217.113859 0Z" fill="#666666" p-id="12604"></path><path d="M687.966384 381.584808c0 36.055919-29.243475 65.292929-65.291637 65.292929-36.054626 0-65.294222-29.23701-65.294222-65.292929 0-36.057212 29.239596-65.292929 65.294222-65.292929 36.046869 0 65.291636 29.235717 65.291637 65.292929z" fill="#44BDD3" p-id="12605"></path></svg>