<?xml version="1.0" standalone="no"?><!DOCTYPE svg PUBLIC "-//W3C//DTD SVG 1.1//EN" "http://www.w3.org/Graphics/SVG/1.1/DTD/svg11.dtd"><svg t="1570711770980" class="icon" viewBox="0 0 1024 1024" version="1.1" xmlns="http://www.w3.org/2000/svg" p-id="1751" xmlns:xlink="http://www.w3.org/1999/xlink" width="128" height="128"><defs><style type="text/css"></style></defs><path d="M524 524m-453.544 0a453.544 453.544 0 1 0 907.088 0 453.544 453.544 0 1 0-907.088 0Z" fill="#656464" p-id="1752"></path><path d="M967.944 441.336a1671.336 1671.336 0 0 1-99.0624-29.696c-28.0848-9.376-43.7456-30.288-45.2608-59.8336a1787.2512 1787.2512 0 0 1-2.328-102.3216c0.12-20.4336 7.1632-37.0784 20.6144-48.9232-50.0736-49.2224-111.5136-86.9008-180.0352-108.7424-3.9664 6.3024-9.208 12.176-15.6912 17.5504a1788.7648 1788.7648 0 0 1-80.6464 63.0176c-23.8256 17.544-49.9264 18.6704-74.9712 2.8816a1672.632 1672.632 0 0 1-85.728-57.84c-9.7552-7.0304-17.0304-15.312-21.6992-24.6336-65.0048 21.224-123.5648 56.704-171.9392 102.7984 8.6192 10.9584 13.1264 24.816 13.224 41.0944 0.2 34.1056-0.576 68.2592-2.328 102.3216-1.5168 29.5472-17.1792 50.4576-45.264 59.8352a1672.512 1672.512 0 0 1-96.0976 28.8912 455.3024 455.3024 0 0 0-10.272 96.2656c0 77.1296 19.2768 149.7472 53.2384 213.3408 16.5088-13.7984 36.3184-18.528 58.3376-12.1888 34.1424 9.832 67.5456 22.1936 100.7024 34.9456 27.6432 10.632 42.3008 32.2752 42.4784 61.856 0.2 34.1056-0.576 68.2592-2.328 102.3216a84.8752 84.8752 0 0 1-0.5424 6.0464c60.7472 30.208 129.2096 47.2224 201.6528 47.2224 35.3184 0 69.696-4.04 102.6944-11.6784-7.2432-18.5792-5.0512-39.0176 5.864-58.4992 8.0736-14.3968 15.4064-29.2224 23.3104-43.7104 0 0 23.4256-41.616 24.7168-43.5312 14.776-22.5328 36.2208-33.7776 63.0112-30.328 35.2368 4.5328 70.1312 11.6848 104.84 19.2576 8.0528 1.7568 15.2064 4.544 21.4896 8.2304 67.1104-79.0784 107.6176-181.4432 107.6176-293.2848 0-28.056-2.5664-55.5104-7.4416-82.16-0.7216-0.1728-1.4336-0.312-2.1568-0.5056z m-300.8128 87.744c-11.1376 33.736-22.7312 67.4144-36.7536 100.0592-10.6592 24.8192-31.2496 37.5616-58.1664 38.8192-2.3088 0.1392-50.0528-0.8656-50.0528-0.8656-16.4992-0.5648-32.9888-1.7904-49.4944-2.1664-30.9632-0.7088-54.9744-16.7984-64.6032-46.0976-10.9664-33.3968-20.8048-67.2176-28.9664-101.4112-6.6832-27.992 2.5648-51.7488 25.7344-68.448a1670.8624 1670.8624 0 0 1 85.728-57.8384c25.0448-15.7904 51.1472-14.6624 74.9712 2.8816a1788.7312 1788.7312 0 0 1 80.6464 63.016c22.784 18.8768 30.2464 43.9296 20.9568 72.0512z" fill="#E6E9ED" p-id="1753"></path></svg>