<?xml version="1.0" standalone="no"?><!DOCTYPE svg PUBLIC "-//W3C//DTD SVG 1.1//EN" "http://www.w3.org/Graphics/SVG/1.1/DTD/svg11.dtd"><svg t="1570682988472" class="icon" viewBox="0 0 1024 1024" version="1.1" xmlns="http://www.w3.org/2000/svg" p-id="11128" xmlns:xlink="http://www.w3.org/1999/xlink" width="128" height="128"><defs><style type="text/css"></style></defs><path d="M634.704602 477.324319L429.94321 544.183668l-178.133361 78.623153-49.836695 13.158252c-12.698381 12.075329-26.004979 24.299005-40.394499 36.678442C145.787269 686.261639 131.086223 698.648494 119.826794 707.615984c-12.609374 9.909484-31.15257 28.48235-40.587348 40.246153-14.092829 17.645706-25.218747 36.344665-30.025144 50.763854-8.515036 26.004979-4.302022 52.314066 12.067912 76.620488 21.050237 30.952303 62.994947 62.527658 111.897065 84.037766 24.922056 10.992407 66.866766 25.070401 98.434703 32.962386 52.469828 13.351101 153.997537 27.710953 209.864479 29.876798 11.296515 0.467289 26.46485 0.467289 27.087902 0 1.238686-0.741728 9.902067-17.33418 19.967314-37.917128 34.356834-70.115534 59.123127-135.89196 72.585487-192.107515 8.047747-34.045309 14.38952-79.36488 18.543197-133.103063 1.09034-15.012572 1.550211-65.272051 0.623051-82.331792-1.394448-27.851881-3.871819-50.437494-7.736221-72.585488-0.623051-3.248768-0.778814-6.18601-0.467289-6.341773 0.615634-0.467289 2.477371-1.082923 27.703535-8.359273l-5.103087-12.067912z m-46.728855 27.39201c1.85432 0 6.801644 47.515086 8.04033 77.54023 0.311526 6.34919 0.155763 10.525118-0.148346 10.525118-1.238686 0-26.160741-14.701046-43.954792-25.841798-15.47986-9.753721-44.881952-29.253747-49.525169-32.969804-1.550211-1.082923-1.394448-1.231268 11.296515-5.570376 21.510108-7.27635 72.578071-23.68337 74.284045-23.68337z m-104.324023 34.364251c1.394448 0 4.947325 2.010082 13.462361 7.268933 31.894298 19.967314 75.218622 44.110556 93.791487 52.16572 5.726139 2.469954 6.341773 1.542794-6.809062 10.517701-28.185658 19.195917-63.306472 38.072891-106.334105 57.113045-7.580459 3.404531-13.922232 6.030247-14.092829 6.030248-0.311526 0 0.615634-3.864402 1.854319-8.507619 10.38419-38.569848 16.251257-77.54023 16.562783-108.804059 0.155763-15.47986 0.155763-15.47986 1.550212-15.939731-0.311526 0.155763-0.155763 0.155763 0 0.155762z m-21.510108 8.20351c0.919743 0.92716 0.304108 35.602937-0.934577 45.037716a393.96875 393.96875 0 0 1-14.233757 67.326637c-1.705974 5.718722-3.256185 10.517701-3.560294 10.829227-0.623051 0.741728-21.829051-19.967314-28.793875-28.015061-12.067912-13.929649-21.510108-27.859298-28.474933-41.477422-3.560294-6.964825-9.13067-20.582948-8.663381-21.050236 2.469954-1.698557 84.037766-33.273912 84.660817-32.636026zM360.888347 587.055538a0.578548 0.578548 0 0 1 0.467288 0.155763 29.275998 29.275998 0 0 1 2.321609 5.570376c4.947325 13.462361 16.088077 33.273912 25.686035 45.987127 10.525118 13.929649 24.306422 28.786458 35.751283 38.569849 3.708639 3.093005 7.120587 6.037665 7.580458 6.497536 0.934577 0.934577 1.246103 0.741728-23.987478 10.38419-29.246329 11.125918-61.13321 22.251836-97.65589 34.052725q-13.098914 4.213014-26.153324 8.507619c-1.394448 0.467289-0.92716-0.304108 3.093005-6.675551 18.105577-28.319169 45.653349-83.882003 61.13321-123.193579 2.633134-6.809062 5.266268-13.618123 5.726139-15.168335 0.623051-2.165845 1.394448-2.966911 3.404531-4.027582a15.123831 15.123831 0 0 1 2.633134-0.615634z m-30.952304 12.846726c0.459871 0.311526-7.417279 16.866891-15.168334 32.035227-15.012572 29.253747-31.419592 58.040205-53.404406 93.02009-3.708639 6.037665-7.268933 11.608041-7.736221 12.223675-0.741728 1.082923-1.082923 0.741728-3.560294-4.020165-5.25885-10.38419-9.597958-23.68337-11.919567-35.907046-2.321608-12.075329-1.85432-33.125566 0.778815-46.120638 2.010082-9.597958 1.85432-9.442196 6.497536-11.763803 19.811551-10.05783 83.88942-40.053304 84.505054-39.46734z m266.977524 10.836644v6.497536c0 34.512597-3.708639 81.871921-9.138087 116.391935-0.92716 6.030247-1.698557 10.98499-1.854319 11.125918 0 0-4.450367-1.238686-9.746304-2.788896a399.516874 399.516874 0 0 1-71.205874-30.485015c-15.012572-8.20351-36.834205-21.673288-36.211154-22.288922 0.148346-0.155763 6.675551-3.560294 14.233757-7.587876 30.336669-15.783969 59.434653-32.806623 84.660818-49.695767 9.442196-6.341773 23.675953-16.555366 26.776375-19.344262l2.477371-1.85432z m-383.799661 45.809113c0.615634 0 0.459871 1.238686-0.467288 6.809061-0.615634 4.027582-1.394448 11.452278-1.698557 16.555366-1.238686 22.600448 2.477371 39.311576 13.618123 62.22355 3.093005 6.341773 5.577793 11.608041 5.414614 11.756386-1.082923 0.934577-103.537791 30.959721-135.736198 39.778865-9.597958 2.633134-17.949814 4.954742-18.543196 5.103088-1.082923 0.311526-1.238686 0.16318-0.741728-2.469954 3.560294-22.748793 20.894474-52.469828 45.037715-77.54023 16.102912-16.718546 28.927386-26.46485 50.919618-39.007468 15.791386-8.974907 40.053304-22.437268 41.94471-23.052901 0-0.155763 0.155763-0.155763 0.311526-0.155763z m241.439834 43.175978c0.155763-0.148346 3.871819 1.861737 8.359273 4.494871 33.118149 19.1885 79.238787 36.989968 118.550363 46.120638l3.560294 0.741728-4.954742 2.781479c-20.582948 11.459695-88.221111 39.623102-157.394651 65.472318-10.065247 3.708639-19.967314 7.417279-21.829051 8.20351s-3.560294 1.238686-3.560293 1.082923 2.788897-5.570376 6.34919-12.231093c19.344262-36.211154 38.844288-80.321709 48.746355-110.962487 1.246103-2.966911 2.0175-5.570376 2.173262-5.733556z m-24.61053 8.055165c0.155763 0.155763-1.082923 3.404531-2.625717 7.11317-13.469778 32.636026-31.115484 68.238963-53.708513 108.188425-5.726139 10.213593-10.525118 18.417103-10.680882 18.417102s-4.798979-2.788897-10.38419-6.193427c-32.81404-20.115659-61.904607-44.881952-80.94476-68.869432l-2.78148-3.40453 14.092829-3.87182c50.437494-13.773886 93.324199-28.630695 135.891961-46.892035 6.037665-2.477371 10.992407-4.487454 11.140752-4.487453z m152.914615 53.404405c0.155763 3.560294-7.736222 35.447174-14.241175 58.507493-5.414613 19.344262-10.05783 34.512597-18.543197 61.281556-3.708639 11.771221-6.957407 21.510108-7.120587 21.510108a10.525118 10.525118 0 0 1-2.010082-0.459872c-45.987127-8.36669-87.130771-19.967314-125.826714-35.447174-10.836644-4.331691-26.309087-11.296515-27.236247-12.075329-0.311526-0.311526 8.974907-4.643216 20.76838-9.746304 70.419643-30.803958 143.472419-65.776426 168.542821-80.788998 2.966911-1.861737 5.25885-2.788897 5.726139-2.788897z m-353.025373 12.07533c0.304108 0.311526-19.35168 28.630695-46.899452 67.170874-9.597958 13.462361-20.76838 29.246329-24.914639 35.128231s-10.525118 15.168335-14.092829 20.76838l-6.504953 10.065247-6.964825-5.881902c-8.20351-6.809062-22.437268-21.361762-28.786458-29.409509-13.306598-16.555366-22.251836-34.045309-25.841798-49.98504-1.705974-7.417279-1.705974-11.125918-0.155763-11.608041 2.314191-0.623051 43.643267-10.38419 82.331792-19.35168 21.510108-4.947325 46.424746-10.829227 55.399653-12.995072s16.258675-3.871819 16.414438-3.871819z m19.804134 7.587876l4.954742 5.570376c22.288922 24.914639 45.037715 43.339159 72.585488 59.427236 4.954742 2.788897 8.670799 5.266268 8.359273 5.42203-1.082923 0.741728-95.645807 34.356834-139.444837 49.525169-24.61053 8.663381-44.88937 15.628206-45.037715 15.628206a26.494519 26.494519 0 0 1-3.100423-2.010083l-2.781479-2.017499 4.487453-6.497536c14.545283-21.050237 32.81404-44.110556 72.585488-92.085513l27.384593-32.977221z m123.512522 88.369456c0.148346-0.155763 6.957407 2.321608 15.31668 5.422031 20.123077 7.580459 36.062808 12.372021 57.417154 17.801468 26.316504 6.675551 64.389395 13.158252 86.826662 15.012572 3.411948 0.304108 5.266268 0.615634 4.643217 1.082923-1.082923 0.623051-23.831716 8.20351-40.550262 13.46236-26.620613 8.359273-107.869482 32.346752-174.113197 51.386906-12.223675 3.560294-22.748793 6.497536-23.371844 6.675551-1.542794 0.311526-6.675551-1.082923-6.675551-1.705974 0-0.304108 3.708639-5.103088 8.20351-10.38419a918.533523 918.533523 0 0 0 62.839184-84.505055c5.103088-7.743639 9.442196-14.092829 9.442195-14.241174z m-27.243664 0.741728c0.155763 0.155763-10.836644 17.801469-30.025143 48.130721-8.20351 12.846726-17.33418 27.399427-20.582948 32.502514-3.100422 4.954742-7.743639 12.698381-10.38419 17.059741l-4.450367 7.891984-2.321609-0.623051c-5.577793-1.542794-44.733607-15.324097-55.102962-19.500025a383.280452 383.280452 0 0 1-36.062808-16.555366c-12.379438-6.675551-27.851881-16.562783-26.613196-16.874309 0.304108-0.155763 21.510108-5.881902 47.047798-12.846726 67.786509-18.417103 105.392111-29.097984 130.002641-36.834206 4.494871-1.394448 8.359273-2.477371 8.515036-2.321608z m192.686062 45.193478h0.155763c0.615634 1.550211-24.477019 71.205874-33.585437 93.168436-2.010082 4.954742-2.781479 6.193428-3.864402 6.037665-2.633134-0.155763-39.007468-5.25885-61.140627-8.507619-38.532762-5.881902-103.226266-17.185834-119.477523-20.894473l-3.708639-0.741728 23.060319-5.258851c49.525169-11.125918 73.356885-17.178417 97.500126-24.61053a689.947833 689.947833 0 0 0 91.165771-35.128231c4.791562-2.173263 8.819144-3.871819 9.902067-4.027582zM423.601437 0.00761C420.226575-0.444844 365.249707 19.366707 329.80995 33.756228c-47.826612 19.500025-84.964926 38.072891-107.876899 54.146133-8.507618 6.037665-19.1885 16.718546-20.887057 20.894474a14.382103 14.382103 0 0 0-0.934577 5.25885l20.76838 19.655788 49.376823 15.791386L387.694391 170.605017l134.34175 23.060319 1.387031-11.608041c-0.459871 0-0.741728-0.155763-1.231269-0.155763l-17.645705-2.788897-3.560294-6.341773c-18.26134-32.190989-38.384416-72.125617-50.14822-99.057755-9.123253-20.894474-17.801469-45.030298-22.593031-62.364478-2.633134-10.525118-2.966911-11.125918-4.643216-11.303932z m-2.477371 7.899402h0.155763c0.155763 0.148346 0.741728 4.487454 1.394448 9.590541a322.799962 322.799962 0 0 0 15.012572 65.160792c5.726139 17.022654 5.726139 16.095494-0.92716 14.092829C420.968303 92.412066 350.244552 80.188391 299.013409 73.067804c-8.20351-1.082923-15.168335-2.165845-15.168334-2.321608-0.623051-0.615634 36.989968-20.301091 53.545333-28.007644 21.205999-9.753721 79.401967-34.052726 83.733658-34.824123z m-149.198558 69.33672l6.037665 2.010082c32.806623 11.125918 115.301595 26.932138 160.806599 30.648195 5.103088 0.467289 9.434778 0.934577 9.590541 0.934577 0.155763 0.148346-4.175928 2.469954-9.746304 5.103088-21.977396 10.98499-46.120638 24.477019-62.839184 34.824123-4.947325 3.093005-9.442196 5.570376-10.05783 5.570376s-3.871819-0.615634-7.27635-1.082923l-6.18601-0.92716-15.479861-15.168334c-27.236247-26.46485-48.598009-46.899452-56.801519-54.635674z m-6.18601 4.798979l21.821633 27.243664c11.912149 15.012572 23.987479 29.713618 26.620613 32.962386s4.791562 5.881902 4.643216 6.037665c-0.623051 0.467289-31.575355-5.570376-47.982375-9.286433-16.866891-3.871819-23.831716-5.726139-34.201071-8.974907L228.119061 127.236189v-2.165845c0.155763-10.38419 13.314015-25.849216 35.602937-41.633185l2.0175-1.394448z m185.431963 37.145731c0.623051 0 1.394448 1.394448 3.248768 5.570376 5.25885 11.608041 21.673288 42.87187 25.693453 48.909535 1.238686 2.010082 3.404531 2.165845-18.417102-1.394449-52.49208-8.515036-69.358972-11.31135-69.358972-11.608041a16.318013 16.318013 0 0 1 3.560294-2.321608 302.498871 302.498871 0 0 0 47.20356-32.636025c3.560294-2.966911 6.809062-5.733556 7.417279-6.193428 0.155763-0.311526 0.467289-0.467289 0.623051-0.311526z" fill="#909CA9" p-id="11129"></path><path d="M202.158586 106.653241s-3.404531 5.414613-0.148346 13.469778c2.010082 4.947325 7.891984 10.98499 14.545284 17.171 0 0 68.869431 67.170875 77.228704 76.768833 38.072891 43.954793 54.635674 87.286534 56.178468 147.032712 0.934577 38.384416-6.341773 72.118199-24.47702 111.259179-32.198406 70.26388-100.13326 147.80411-204.917154 233.851958l15.324097-5.103088c9.902067-7.417279 23.371845-15.324097 54.939783-32.636026C263.721998 628.53296 345.749681 591.854517 446.35023 554.078318c144.85945-54.479911 383.050516-118.246255 518.630951-138.984966l14.092829-2.165845-2.173263-3.404531c-12.379438-19.195917-20.894474-31.108066-31.108066-43.79903-29.713618-36.841623-65.769009-66.703586-109.879564-91.469879-60.673339-33.896963-139.140728-60.361813-238.502592-80.017601-18.728628-3.708639-59.894524-10.829227-93.324199-15.939731-70.886931-10.98499-116.696043-18.543196-167.148372-27.236247-18.112994-3.100422-45.193478-7.743639-63.150709-11.608041-9.286433-2.0175-27.080484-6.193428-41.010133-10.992407-11.125918-4.331691-27.243664-8.670799-30.648195-21.821633zM242.056127 145.38627c0.155763-0.155763 2.625717 0.741728 5.881902 1.854319 5.881902 2.010082 13.462361 4.331691 22.444685 6.809062q10.176506 2.803731 20.427185 5.414613c9.286433 2.321608 17.059741 4.450367 17.178417 4.450367 1.082923 1.09034 16.718546 51.07538 21.977397 70.26388 2.010082 7.27635 3.560294 13.469778 3.40453 13.469778-0.155763 0.155763-1.861737-2.477371-3.871819-6.037665-18.105577-31.894298-46.728855-64.226215-79.861838-90.231193a66.800011 66.800011 0 0 1-7.580459-5.993161z m76.145782 21.042819a61.125793 61.125793 0 0 1 8.359273 1.394448c26.309087 5.881902 73.512648 14.834557 103.693554 19.967314 5.110505 0.741728 9.13067 1.705974 9.13067 2.010083s-1.85432 1.394448-4.183345 2.633133c-5.103088 2.625717-25.686036 14.834557-32.495098 19.500026-17.178417 11.452278-32.636026 23.831716-43.79903 34.972468-4.487454 4.494871-8.359273 8.20351-8.359272 8.20351s-0.92716-2.625717-1.705975-5.881902c-5.570376-21.510108-17.178417-53.404406-27.703535-75.834256a66.755507 66.755507 0 0 1-3.093005-7.120587c0 0.311526 0 0.155763 0.155763 0.155763z m134.030223 25.53769c0.92716 0.311526 2.477371 5.570376 5.570376 17.178417a253.485494 253.485494 0 0 1 7.417279 70.886931c-0.311526 6.497536-0.623051 12.535201-0.934577 13.314015l-0.459871 1.542794L455.829512 292.248385c-16.562783-5.25885-43.487504-13.150835-66.547823-19.655788-13.158252-3.560294-23.839133-6.809062-23.839133-7.11317 0-0.934577 19.195917-20.123077 27.399427-27.399427 15.628206-13.773886 58.032787-46.587927 59.427236-46.120638z m10.680881 1.550211c0.459871-0.467289 64.070452 10.525118 93.012673 16.095495 21.510108 4.175928 52.781354 10.680881 54.635674 11.452278 0.92716 0.311526-2.321608 2.165845-12.690964 6.809061-40.861788 18.417103-71.205874 34.979886-101.371945 55.095545-7.891984 5.266268-14.552701 9.597958-14.708464 9.597959s-0.304108-4.487454-0.304108-9.902067c0-29.409509-5.881902-59.123127-16.718546-84.193529-1.082923-2.514457-2.010082-4.836066-1.85432-4.991828z m164.515238 32.502515c0.467289 0.459871-1.550211 13.002489-3.40453 20.427185-5.570376 23.060319-20.582948 57.268808-39.000051 89.459796-3.248768 5.726139-6.193428 10.38419-6.504953 10.517701s-4.450367-2.165845-9.279016-4.947324c-17.957231-10.525118-38.384416-20.434602-60.673338-29.721036-6.18601-2.625717-11.608041-4.798979-11.763804-5.103087-1.082923-0.92716 48.753772-33.896963 75.062859-49.695766 20.894474-12.690964 54.947199-31.575355 55.562833-30.952304z m11.763804 1.854319c1.394448 0 29.557855 7.736222 44.258901 12.07533 36.344665 10.829227 78.163281 26.153324 105.399528 38.532762l11.296516 5.110505-7.891985 1.854319c-66.547823 15.287011-123.505105 32.932717-178.43747 55.214222-4.450367 1.861737-8.515036 3.411948-8.819144 3.411948s1.238686-3.560294 3.248768-7.899402c16.562783-35.128231 27.236247-71.806674 29.869381-103.100171 0.155763-2.966911 0.615634-5.25885 1.082922-5.258851zM358.752171 292.248385c0.459871-0.459871 21.977396 4.643216 33.585437 7.891984 17.638288 4.954742 55.095545 17.489943 55.095545 18.417103 0 0.155763-4.175928 3.708639-9.13067 8.055164C418.001392 343.427607 398.523618 361.229075 375.151773 383.844358c-6.964825 6.675551-12.839309 12.075329-13.150834 12.075329s-0.459871-0.934577-0.311526-2.173262c3.560294-25.997561 2.788897-59.427236-2.165845-93.324199-0.459871-4.331691-0.92716-8.047747-0.771397-8.173841z m452.083127 0.467288c0.304108 0.311526-9.909484 16.40702-16.40702 25.53769-9.271598 13.306598-22.911973 30.922634-53.708514 69.618577-16.251257 20.427185-34.512597 43.487504-40.550262 51.223726-6.193428 7.736222-11.296515 14.241175-11.452278 14.241174a53.115132 53.115132 0 0 1-4.331691-6.193427 319.810799 319.810799 0 0 0-62.683421-69.180957c-4.643216-3.871819-9.746304-8.047747-11.452278-9.286433a17.260007 17.260007 0 0 1-3.093005-2.633134c0-0.459871 26.309087-11.763804 46.276401-19.804134 34.972468-14.241175 82.643318-31.263829 118.3946-42.278487 18.728628-5.881902 38.695942-11.608041 39.007468-11.296516z m11.912149 3.093006c0.615634-0.155763 4.331691 1.705974 8.819145 4.33169 37.61302 21.510108 74.447225 49.22106 103.545208 77.695993 8.20351 8.047747 28.474932 29.097984 28.185659 29.253747 0 0-7.120587 0.615634-15.472443 1.238685-65.160792 4.954742-148.575507 18.721211-228.748871 38.072891-5.414613 1.231268-10.213593 2.321608-10.525118 2.321608s5.726139-6.037665 13.314015-13.314015c47.047798-45.341824 68.565323-73.979936 93.939833-125.055316 3.560294-7.580459 6.675551-14.092829 6.964824-14.545283zM478.081348 331.070421c2.173263 0.459871 22.251836 9.902067 37.457257 17.489943 13.929649 6.957407 34.861209 18.105577 35.907045 19.032736 0.155763 0.155763-7.27635 4.020165-16.399603 8.515036-29.112818 14.545283-53.997788 28.319169-80.032435 44.103138-7.417279 4.494871-13.618123 8.210927-13.766469 8.210928-0.623051 0-0.467289-0.623051 3.708639-8.210928 13.929649-25.37451 25.070401-55.711179 31.419592-85.298703 0.615634-2.321608 1.238686-3.864402 1.698557-3.864402z m-20.11566 3.708639c0.467289 0.467289-4.798979 19.500025-8.047747 29.876798a381.055268 381.055268 0 0 1-27.392009 62.831767c-2.477371 4.331691-6.193428 10.680881-8.203511 14.241174l-3.871819 6.186011-8.663381-8.351856c-10.065247-9.753721-18.268757-15.791386-28.786458-21.205999-4.183345-2.165845-7.417279-4.027582-7.417279-4.331691 0-1.238686 26.46485-25.218747 46.728855-42.560344 14.552701-12.535201 45.193478-37.145731 45.660767-36.68586z m123.045234 50.615509l7.587876 4.947325a589.532716 589.532716 0 0 1 53.404406 39.467339c8.819144 7.27635 25.841798 22.600448 29.246329 26.309087l1.85432 2.0175-12.557453 3.560293c-70.886931 19.648371-125.678368 37.138314-189.593057 60.665922-7.120587 2.633134-13.158252 4.798979-13.625541 4.798979-0.92716 0-1.698557 0.741728 14.241175-13.929649 40.861788-37.605602 77.072941-79.090441 104.00508-119.48494l5.422031-8.351856z m-32.346751 8.047747c0.304108 0.304108-20.894474 30.173489-33.592855 47.047798-15.168335 20.130494-42.100473 53.85686-60.673339 75.834256-7.736222 9.13067-14.38952 16.718546-14.701046 16.874309-0.467289 0.148346-0.623051-2.173263-0.623051-5.72614 0-18.736046-4.791562-38.695942-13.150835-55.718596-3.560294-7.120587-4.183345-8.826561-3.404531-9.597958 2.966911-2.633134 47.974958-28.326587 76.44989-43.643267 19.195917-10.213593 49.213643-25.381927 49.695767-25.070402zM353.026032 441.417274c0.459871 0 4.020165 1.85432 8.047747 4.027582a170.241377 170.241377 0 0 1 26.620612 17.949814c0.304108 0.311526-3.708639 3.560294-8.974907 7.417279-14.708463 10.517701-36.989968 27.39201-49.992457 37.761365-13.618123 10.836644-14.092829 11.125918-12.535201 8.819144 10.213593-15.628206 15.31668-24.477019 20.76838-35.751283a286.959672 286.959672 0 0 0 12.995072-32.346751c1.238686-4.450367 2.788897-7.891984 3.100423-7.891985z m52.158302 40.861787c0.741728-0.155763 1.698557 1.238686 5.874485 7.417279 8.826561 13.158252 15.635623 30.803958 17.341597 45.037715l0.304109 3.100423-21.198583 8.20351c-37.924545 14.701046-72.897014 29.246329-96.580383 40.053304-6.675551 3.093005-18.26134 8.663381-25.841799 12.379438-7.587876 3.871819-13.773886 6.809062-13.773886 6.67555s4.791562-3.708639 10.673464-8.055164c46.283818-33.57802 86.366791-70.419643 116.391935-107.253848 3.248768-3.864402 6.18601-7.417279 6.497536-7.580459z m-23.987479 5.881902c0.615634 0.615634-17.059741 20.582948-29.097983 32.806623C322.229491 551.460018 292.649384 575.291734 255.985776 598.507816c-4.643216 2.966911-8.819144 5.570376-9.286432 5.881902-1.082923 0.623051 0.311526-0.92716 16.40702-18.417103 10.213593-10.98499 17.949814-20.271422 26.776375-31.7237 5.874485-7.587876 6.964825-8.670799 15.472443-14.708463 22.756211-16.40702 75.218622-52.00254 75.841673-51.379489z" fill="#A91D22" p-id="11130"></path><path d="M548.486156 1023.962914h3.322941v-26.576109h8.782057v-3.315524h-20.887056v3.315524h8.782058v26.576109zM568.61665 1003.9956a47.285151 47.285151 0 0 0-0.192849-5.896737 16.458941 16.458941 0 0 0 0.927159 3.070754l10.198758 22.793297h1.631802l10.228427-22.993564c0.274439-0.741728 0.48954-1.631801 0.949411-2.848235-0.215101 2.366112-0.215101 4.264935-0.215101 5.711305v20.123076h3.538042v-29.884215h-4.272352l-9.249347 20.620034c-0.215101 0.741728-0.956829 2.18068-1.4167 3.812482h-0.267022a21.606532 21.606532 0 0 0-1.364779-3.530625l-9.241929-20.894474h-4.791562v29.921302h3.345193v-19.967314h0.192849z" fill="#231F1F" p-id="11131"></path></svg>