<?xml version="1.0" standalone="no"?><!DOCTYPE svg PUBLIC "-//W3C//DTD SVG 1.1//EN" "http://www.w3.org/Graphics/SVG/1.1/DTD/svg11.dtd"><svg t="1570612445334" class="icon" viewBox="0 0 1024 1024" version="1.1" xmlns="http://www.w3.org/2000/svg" p-id="12800" xmlns:xlink="http://www.w3.org/1999/xlink" width="128" height="128"><defs><style type="text/css"></style></defs><path d="M1010.64 272.48a314.56 314.56 0 0 0-6.32-62.64 230.24 230.24 0 0 0-21.2-60.64 230.72 230.72 0 0 0-38.08-50.56 187.36 187.36 0 0 0-52.96-36.4 218.16 218.16 0 0 0-61.44-20.24c-21.2-4.08-44.48-4.08-65.68-6.08H242a363.68 363.68 0 0 0-48.72 4.08 174.56 174.56 0 0 0-46.56 12.16c-4.24 2-10.56 4.08-14.8 6.08a270.56 270.56 0 0 0-40 26.24c-4.24 4.08-8.48 6.08-12.72 10.08a179.28 179.28 0 0 0-38.08 50.56 188.88 188.88 0 0 0-21.2 60.64 628 628 0 0 0-6.32 62.64v483.12a314.56 314.56 0 0 0 6.32 62.64 230.24 230.24 0 0 0 21.2 60.64 230.72 230.72 0 0 0 38.08 50.56 187.36 187.36 0 0 0 52.96 36.4 218.16 218.16 0 0 0 61.44 20.24c21.2 4.08 44.48 4.08 65.68 6.08h505.76a360.64 360.64 0 0 0 65.68-6.08 218.16 218.16 0 0 0 61.44-20.24 241.04 241.04 0 0 0 52.96-36.4 179.28 179.28 0 0 0 38.08-50.56 188.88 188.88 0 0 0 21.2-60.64 627.92 627.92 0 0 0 6.32-62.64V272.48z" fill="#F05138" p-id="12801"></path><path d="M680 772c-88.88 49.04-211.04 54.08-334 3.76A516.24 516.24 0 0 1 110.72 584a400 400 0 0 0 86.8 50.56c126.96 56.8 253.84 52.88 343.2 0-127.2-93.28-235.2-214.56-315.68-313.6a347.76 347.76 0 0 1-42.32-54.56c97.28 84.88 252 192 307.04 222.32a2174.16 2174.16 0 0 1-216-258.72 2134.4 2134.4 0 0 0 355.76 278.96c5.68 3.04 10.08 5.6 13.6 8a261.6 261.6 0 0 0 9.68-28.08c29.68-103.12-4.24-220.32-78.32-317.36C746 270.48 848 456.4 805.28 612.08c-1.12 4.24-2.32 8-3.6 12.4l1.52 1.76c84.72 101.04 61.44 208 50.8 188C808 728 722.96 754.64 680 772z" fill="#FEFEFE" p-id="12802"></path></svg>