<?xml version="1.0" standalone="no"?><!DOCTYPE svg PUBLIC "-//W3C//DTD SVG 1.1//EN" "http://www.w3.org/Graphics/SVG/1.1/DTD/svg11.dtd"><svg t="1570683480976" class="icon" viewBox="0 0 1024 1024" version="1.1" xmlns="http://www.w3.org/2000/svg" p-id="14621" xmlns:xlink="http://www.w3.org/1999/xlink" width="128" height="128"><defs><style type="text/css"></style></defs><path d="M959.648 507.392L507.392 64.352 64.352 516.352l443.04 443.296 452.256-452.256z" fill="#231F20" p-id="14622"></path><path d="M914.4 507.392h27.104L507.392 941.504v-27.104l407.008-407.008z" fill="#29695D" p-id="14623"></path><path d="M82.496 516.352h27.104l397.792 398.048v27.104L82.496 516.352z" fill="#317367" p-id="14624"></path><path d="M507.392 109.376v-26.88L82.496 516.352h27.104L507.392 109.376z" fill="#60C2AC" p-id="14625"></path><path d="M507.392 82.496v26.88l407.008 398.016h27.104L507.392 82.496z" fill="#43B54A" p-id="14626"></path><path d="M507.392 914.4l407.008-407.008L507.392 109.376 109.6 516.352l397.792 398.048z" fill="#3C8376" p-id="14627"></path><path d="M591.936 199.872l27.104 27.328-186.976 189.696V227.2h18.144l27.104-27.328V127.744l-27.104-27.328H148.864l-27.104 27.328v72.128l27.104 27.328h21.12v614.848l33.088 27.104h93.472L944.512 199.872V127.744l-27.104-27.328h-295.392l-30.08 27.328v72.128z" fill="#231F20" p-id="14628"></path><path d="M157.824 209.056l-18.144-18.144V136.704l18.144-18.144 283.424-0.224 17.92 18.368-17.92 8.704-9.184-8.704-274.24 45.024v27.328z" fill="#FFFFFF" p-id="14629"></path><path d="M212.032 851.008l-21.12-18.144V208.832l21.12-17.92v660.096z" fill="#FFFFFF" p-id="14630"></path><path d="M664.288 209.056l18.144-18.144V227.2l-301.568 307.296 33.28-72.352 250.144-253.088z" fill="#FFFFFF" p-id="14631"></path><path d="M218.24 181.952l-6.208 8.96-21.12 18.144H157.824V172.768l60.416 9.184z" fill="#929497" p-id="14632"></path><path d="M414.144 209.056v253.088l-33.28 72.128V190.656h51.2l9.184-8.96-9.184-44.992h27.104v54.208l-17.92 18.144h-27.104z" fill="#929497" p-id="14633"></path><path d="M628 209.056l-17.92-18.144V136.704l20.896-18.144h274.464l21.152 18.144-30.336 27.104-268.256 17.92v27.328z" fill="#FFFFFF" p-id="14634"></path><path d="M926.592 190.912L290.368 851.008H212.032v-27.104H269.44L905.44 172.768l-9.184-36.064h30.336v54.208z" fill="#929497" p-id="14635"></path><path d="M688.384 181.952l-6.176 8.96-17.92 18.144h-36.288V172.768l60.384 9.184z" fill="#929497" p-id="14636"></path><path d="M380.864 534.272V190.656h51.2l9.184-8.928V145.408l-9.184-8.928h-265.28l-8.96 8.928v36.32l8.96 8.928h45.248v633.248l11.712 8.96h51.68L908.448 172.768v-25.952l-9.184-10.336h-262.08l-9.184 8.928v36.544l9.184 8.96h45.248V227.2l-301.568 307.072z" fill="#D0D2D3" p-id="14637"></path><path d="M545.312 534.752l21.12-18.144h54.208l15.168 18.144-18.144 54.208-20.896 18.144h-54.208l-15.392-18.144 18.144-54.208z" fill="#231F20" p-id="14638"></path><path d="M563.456 833.088l54.432-162.592h-18.144l18.144-54.464h81.088l18.144 18.176h12.16l17.92-18.176h60.416l18.144 18.176h11.936l18.144-18.176h66.144l24.128 36.32-39.52 128.608h17.92l-17.44 52.128h-108.64l42.464-126.56h-27.104l-25.024 73.984h17.92l-16.992 52.576h-108.64l42.24-126.56h-27.104l-25.248 74.432h18.144l-16.992 52.128h-108.64z" fill="#231F20" p-id="14639"></path><path d="M913.728 634.208l14.016 19.968-44.576 142.848h17.92l-5.984 17.92h-72.352l42.272-126.56h-63.392l-36.064 108.64h17.92l-5.984 17.92h-72.352l42.272-126.56h-63.392l-36.064 108.64h18.144l-6.208 17.92h-72.352l54.464-162.592h-18.176l5.984-18.144h66.368l18.144 18.144h17.92l18.144-18.144h54.208l18.144 18.144h18.144l18.144-18.144h54.688z" fill="#D0D2D3" p-id="14640"></path><path d="M608.704 616.032l-55.36 164.768h18.848l-17.92 52.384h-108.416l54.208-162.624h-18.144l126.784-54.4z m-126.784 54.4l18.144-54.4h108.8l-126.784 54.4z" fill="#231F20" p-id="14641"></path><path d="M542.304 814.944l5.984-17.92h-18.144l54.432-162.816h-75.328l-6.208 18.144h21.12l-54.208 162.592h72.352z" fill="#D0D2D3" p-id="14642"></path><path d="M602.496 580l12.16-36.288-5.952-8.96h-36.288l-11.968 8.96-12.16 36.288 6.208 8.96h36.288l11.712-8.96z" fill="#D0D2D3" p-id="14643"></path></svg>