<?xml version="1.0" standalone="no"?><!DOCTYPE svg PUBLIC "-//W3C//DTD SVG 1.1//EN" "http://www.w3.org/Graphics/SVG/1.1/DTD/svg11.dtd"><svg t="1570682457529" class="icon" viewBox="0 0 1024 1024" version="1.1" xmlns="http://www.w3.org/2000/svg" p-id="6606" xmlns:xlink="http://www.w3.org/1999/xlink" width="128" height="128"><defs><style type="text/css"></style></defs><path d="M0 512C0 229.226667 229.226667 0 512 0s512 229.226667 512 512-229.226667 512-512 512S0 794.773333 0 512z" fill="#FFFFFF" p-id="6607"></path><path d="M490.496 296.490667L767.936 256v243.477333l-277.44 2.197334v-205.184z m-25.258667 3.733333L256 328.725333l0.192 174.506667 209.130667-1.194667-0.085334-201.813333z m0.064 427.072l-0.170666-201.984-208.981334-1.365333 0.021334 174.613333 209.130666 28.736z m302.634667 42.282667L768 527.189333l-277.888-0.448 0.384 203.690667 277.44 39.146667z" fill="#00ADEF" p-id="6608"></path></svg>