<?xml version="1.0" standalone="no"?><!DOCTYPE svg PUBLIC "-//W3C//DTD SVG 1.1//EN" "http://www.w3.org/Graphics/SVG/1.1/DTD/svg11.dtd"><svg t="1565625267106" class="icon" viewBox="0 0 1165 1024" version="1.1" xmlns="http://www.w3.org/2000/svg" p-id="1474" width="145.625" height="128" xmlns:xlink="http://www.w3.org/1999/xlink"><defs><style type="text/css"></style></defs><path d="M365.174154 362.338462l782.020923 0 0 614.4-782.020923 0 0-614.4Z" fill="#FFCB57" p-id="1475"></path><path d="M945.230769 1024H220.553846A220.553846 220.553846 0 0 1 0 803.446154V315.076923A220.553846 220.553846 0 0 1 220.553846 94.523077h724.676923a220.553846 220.553846 0 0 1 220.553846 220.553846v488.369231a220.553846 220.553846 0 0 1-220.553846 220.553846zM220.553846 157.538462A157.538462 157.538462 0 0 0 63.015385 315.076923v488.369231a157.538462 157.538462 0 0 0 157.538461 157.538461h724.676923a157.538462 157.538462 0 0 0 157.538462-157.538461V315.076923a157.538462 157.538462 0 0 0-157.538462-157.538461z" fill="#472D22" p-id="1476"></path><path d="M330.830769 252.061538a31.507692 31.507692 0 0 1-31.507692-31.507692V31.507692a31.507692 31.507692 0 0 1 63.015385 0v189.046154a31.507692 31.507692 0 0 1-31.507693 31.507692zM834.953846 252.061538a31.507692 31.507692 0 0 1-31.507692-31.507692V31.507692a31.507692 31.507692 0 1 1 63.015384 0v189.046154a31.507692 31.507692 0 0 1-31.507692 31.507692zM535.630769 724.676923a31.507692 31.507692 0 0 1-22.212923-9.294769l-141.784615-141.784616a31.507692 31.507692 0 0 1 44.425846-44.425846L535.630769 648.585846l221.971693-221.814154a31.507692 31.507692 0 0 1 44.425846 44.425846l-244.184616 244.184616A31.507692 31.507692 0 0 1 535.630769 724.676923z" fill="#472D22" p-id="1477"></path></svg>